<svg xmlns="http://www.w3.org/2000/svg" viewBox="0 0 172 80.71"><defs><style>.cls-1{fill:#eba900;}.cls-2{fill:#58b94a;}.cls-3{fill:#e1251b;}</style></defs><title>login</title><g id="Capa_2" data-name="Capa 2"><g id="Login"><path class="cls-1" d="M111.05,34.82C122,21.94,130,11.24,136,.07c9.11-.09,12-.09,22.41,0-11,17.59-26.26,28.11-47.4,34.75"/><path class="cls-2" d="M111.05,34.82c26.22-4.35,48.37-16,59.83-34.75.44,0,.44,0,1.12,0-1.84,9.37-11,40.41-52.41,48.6-44.1,8.73-63.38,13.92-70.87,32,0,0-3-8.26,2.93-17.83,7.58-1.71,20-3.6,31.78-8.75a84,84,0,0,0,27.62-19.31"/><path class="cls-2" d="M58.68.07a27.69,27.69,0,0,0-3.63,4.61c-3.09,5-4.3,9.53-6.32,13.33A66.7,66.7,0,0,1,36,35S68.79,33,84.68,6.58c0,0-9.92,52.11-84.68,37.2,0,0,19.36-8.25,31.1-26,4.8-7.27,7.84-13,10.51-17.36,0-.1.12-.2.17-.3,7.33,0,11.91,0,16.9,0"/><path class="cls-3" d="M98.78,36.28c4.15-.3,8.25-.79,12.27-1.46A82.15,82.15,0,0,1,83.43,54.13c-13.52,5.74-24.2,7-31.78,8.75,8-11.05,29.46-25.29,47.13-26.6"/></g></g></svg>