<svg xmlns="http://www.w3.org/2000/svg" viewBox="0 0 87 60"><defs><style>.cls-1{fill:#306fc5;}.cls-2{fill:#202121;opacity:0.15;isolation:isolate;}.cls-3{fill:#fff;}</style></defs><title>american-bio-mercados</title><g id="Capa_2" data-name="Capa 2"><g id="Carrito_de_Compras" data-name="Carrito de Compras"><path class="cls-1" d="M87,54.86A5.14,5.14,0,0,1,81.86,60H5.14A5.14,5.14,0,0,1,0,54.86V5.14A5.14,5.14,0,0,1,5.14,0H81.86A5.14,5.14,0,0,1,87,5.14V54.86Z"/><path class="cls-2" d="M3.66,54.86V5.14A5.14,5.14,0,0,1,8.8,0H5.14A5.14,5.14,0,0,0,0,5.14V54.86A5.14,5.14,0,0,0,5.14,60H8.8A5.14,5.14,0,0,1,3.66,54.86Z"/><polygon class="cls-3" points="12.68 24.01 15.27 24.01 13.97 20.7 12.68 24.01"/><polygon class="cls-3" points="26.5 35.12 26.5 36.65 30.87 36.65 30.87 38.31 26.5 38.31 26.5 40.08 31.34 40.08 33.59 37.6 31.46 35.12 26.5 35.12"/><polygon class="cls-3" points="60.65 20.7 59.23 24.01 61.95 24.01 60.65 20.7"/><polygon class="cls-3" points="39.14 41.02 39.14 34.29 36.07 37.6 39.14 41.02"/><path class="cls-3" d="M44.93,36.18a1.19,1.19,0,0,0-1.3-1.06H41.15v2.12h2.6C44.46,37.24,44.93,36.89,44.93,36.18Z"/><path class="cls-3" d="M53.2,37a.93.93,0,0,0,.36-.83.67.67,0,0,0-.36-.83,2.24,2.24,0,0,0-.94-.12H49.89v1.9h2.37A2.24,2.24,0,0,0,53.2,37Z"/><path class="cls-3" d="M70.22,17.63v1.42l-.71-1.42H64v1.42l-.7-1.42H55.68a7.25,7.25,0,0,0-3.31.71v-.71H47.06v.71a3.43,3.43,0,0,0-2.25-.71h-19l-1.3,2.95-1.3-2.95h-6v1.42l-.59-1.42H11.38L9,23.18l-2.72,6,0,.12H12.4l0-.12.71-1.77h1.53l.71,1.89h6.86V27.91l.59,1.42h3.42l.59-1.42v1.42H43.28V26.25h.23c.24,0,.24,0,.24.36v2.6h8.51V28.5a7.13,7.13,0,0,0,3.19.71H59l.71-1.89h1.65l.71,1.89h6.86V27.44L70,29.21h5.55V17.63ZM30.16,27.55H28.27V21.06l-.12.27h0L25.4,27.55H23.66l-2.83-6.49v6.49h-4L16,25.78H12l-.83,1.77H9.06l3.5-8.27h2.95l3.31,7.92V19.28H22l.05.12h0l1.49,3.25,1.07,2.43,0-.13L27,19.28h3.19v8.27Zm8.15-6.49h-4.6v1.53H38.2v1.66H33.71V25.9h4.6v1.77H31.7V19.28h6.61v1.78Zm8.43,3h0a.75.75,0,0,1,.12.14,2.33,2.33,0,0,1,.42,1.38v.06h0v1.85H45.52v-.94A2.88,2.88,0,0,0,45.17,25a1.06,1.06,0,0,0-.35-.23,2.27,2.27,0,0,0-1.07-.12H41.62v2.95h-2V19.28H44.1a4.48,4.48,0,0,1,2.37.36,2,2,0,0,1,.94,1.84A2.37,2.37,0,0,1,46,23.66,1.5,1.5,0,0,1,46.74,24.1Zm4,3.45h-2V19.28h2Zm23,0h-2.6l-3.78-6.26v5.2h0v1.08h-4l-.71-1.77H58.52l-.71,1.89H55.56a4.11,4.11,0,0,1-2.83-.94,4.16,4.16,0,0,1-1.06-3.19,4.82,4.82,0,0,1,1.06-3.31,3.71,3.71,0,0,1,3-.95h1.89v1.78H55.68a2.13,2.13,0,0,0-1.53.47,2.73,2.73,0,0,0-.59,1.89,2.56,2.56,0,0,0,.59,2,1.88,1.88,0,0,0,1.41.47h.83l2.72-6.5h3l3.31,7.92V19.4h3l3.42,5.79V19.4h2v8.15Z"/><path class="cls-3" d="M45.06,22.73l.09-.13a1.24,1.24,0,0,0,.16-.89s0-.07,0-.11,0,0,0,0h0a.67.67,0,0,0-.36-.41,2.46,2.46,0,0,0-.94-.11H41.62V23H44a2.26,2.26,0,0,0,.94-.12l.1-.07h0Z"/><path class="cls-3" d="M80.73,39.37a4.44,4.44,0,0,0-.59-2.24V31.81h0v-.36H74.45a3.34,3.34,0,0,0-1.63.71v-.71H67.38a3.75,3.75,0,0,0-2.36.71v-.71H55.33v.71a4.58,4.58,0,0,0-2.6-.71H46.35v.71a4.49,4.49,0,0,0-2.72-.71H36.54l-1.65,1.78-1.54-1.78H22.72V43.39h10.4l1.7-1.71,1.49,1.71h6.61V40.67h.59a7.29,7.29,0,0,0,2.72-.35v3.19h5.32V40.43h.23c.36,0,.36,0,.36.36v2.72H68.21a4.63,4.63,0,0,0,2.71-.71v.71H76a5.23,5.23,0,0,0,2.83-.6,3.94,3.94,0,0,0,1.88-3.18s0-.08,0-.12h0A1.77,1.77,0,0,0,80.73,39.37Zm-37.22-.71H41.15v3.07H37.27L35,39.13h0L34.89,39l-2.6,2.71H24.73V33.46h7.68l2.09,2.3.45.48.06-.06,2.48-2.72h6.26c1.21,0,2.58.3,3.09,1.54a3.43,3.43,0,0,1,.1.83C46.94,38.19,45.29,38.66,43.51,38.66Zm11.82-.12a2.76,2.76,0,0,1,.35,1.54v1.65h-2V40.67A2.65,2.65,0,0,0,53.32,39c-.24-.36-.71-.36-1.42-.36H49.78v3.07h-2V33.34h4.49a4.69,4.69,0,0,1,2.36.36,2.08,2.08,0,0,1,1.06,1.89,2.33,2.33,0,0,1-1.41,2.24A2.08,2.08,0,0,1,55.33,38.54Zm8.15-3.42H58.87v1.53h4.49v1.66H58.87V40h4.61v1.77H56.87V33.34h6.61Zm5,6.61H64.66V40h3.78a1,1,0,0,0,.83-.24.87.87,0,0,0,.24-.59.91.91,0,0,0-.24-.59,1,1,0,0,0-.71-.23c-1.89-.12-4.13,0-4.13-2.6,0-1.18.71-2.48,2.83-2.48h3.9v2H67.5a1.74,1.74,0,0,0-.83.12c-.23.12-.23.36-.23.59s.23.48.47.59a1.46,1.46,0,0,0,.71.12h1.06a3,3,0,0,1,2.24.71,2.44,2.44,0,0,1,.6,1.77C71.52,40.91,70.45,41.73,68.44,41.73Zm10.17-.82a3.48,3.48,0,0,1-2.49.82H72.34V40h3.78a1,1,0,0,0,.83-.24.87.87,0,0,0,.24-.59.91.91,0,0,0-.24-.59,1,1,0,0,0-.71-.23c-1.89-.12-4.13,0-4.13-2.6a2.41,2.41,0,0,1,2.22-2.44,3.91,3.91,0,0,1,.61,0h3.9v2H75.18a1.74,1.74,0,0,0-.83.12.91.91,0,0,0-.23.59c0,.36.11.48.47.59a1.46,1.46,0,0,0,.71.12h1.06a3.76,3.76,0,0,1,1.26.19,2.54,2.54,0,0,1,1.66,1.87,2.77,2.77,0,0,1,0,.42A2.44,2.44,0,0,1,78.61,40.91Z"/></g></g></svg>