<svg xmlns="http://www.w3.org/2000/svg" viewBox="0 0 14.31 15"><defs><style>.cls-1{fill:#ccc;}</style></defs><title>añadir-carrito-bio</title><g id="Capa_2" data-name="Capa 2"><g id="Guias_y_recursos" data-name="Guias y recursos"><path class="cls-1" d="M13.2,11.58H8.83a.45.45,0,1,0,0,.9H10.1a.81.81,0,1,1-.81.81.46.46,0,0,0-.91,0,1.72,1.72,0,1,0,3.22-.81h1.6a.45.45,0,1,0,0-.9Z"/><path class="cls-1" d="M14.21,3.33a.48.48,0,0,0-.35-.16H4V1.35A.45.45,0,0,0,3.67.92L.58,0A.45.45,0,0,0,0,.32a.45.45,0,0,0,.3.56l2.77.81v9.89H2.65a.45.45,0,0,0,0,.9h2.6a.81.81,0,1,1-.81.81.45.45,0,1,0-.9,0,1.72,1.72,0,1,0,1.71-1.71H4v-.77h8.52a.43.43,0,0,0,.22-.06.46.46,0,0,0,.22-.3L14.3,3.71A.48.48,0,0,0,14.21,3.33Zm-.9.74L13,5.39H4V4.07ZM4,9.91V8.59H10.1a.45.45,0,0,0,0-.9H4V6.29h8.87l-.72,3.62Z"/></g></g></svg>