<svg xmlns="http://www.w3.org/2000/svg" viewBox="0 0 1107.48 94.25"><defs><style>.cls-1,.cls-2{fill:#ccc;}.cls-2{font-size:14px;font-family:Bree-Light, Bree;font-weight:300;}.cls-3{letter-spacing:-0.05em;}.cls-4{letter-spacing:0em;}.cls-5{letter-spacing:-0.01em;}.cls-6{letter-spacing:-0.02em;}.cls-7{letter-spacing:-0.03em;}.cls-8{letter-spacing:-0.02em;}.cls-9{letter-spacing:-0.04em;}.cls-10{letter-spacing:-0.05em;}.cls-11{letter-spacing:-0.01em;}.cls-12{letter-spacing:-0.03em;}</style></defs><title>barra-progreso-bio-mercados</title><g id="Capa_2" data-name="Capa 2"><g id="Carrito_de_Compras" data-name="Carrito de Compras"><polygon class="cls-1" points="380.21 41.25 81.8 41.25 81.8 36.25 375.46 36.25 380.21 41.25"/><polygon class="cls-1" points="688.37 41.25 433.55 41.25 429.63 36.25 688.37 36.25 688.37 41.25"/><path class="cls-1" d="M557.55,41.25H431.69l-2.06-5H557.55c.8,0,1.45,1.12,1.45,2.5h0C559,40.13,558.35,41.25,557.55,41.25Z"/><rect class="cls-1" x="741.85" y="36.25" width="299.39" height="5"/><path class="cls-1" d="M229.31,41.25H82.92l-2.4-5H229.31c.94,0,1.69,1.12,1.69,2.5h0C231,40.13,230.25,41.25,229.31,41.25Z"/><path class="cls-1" d="M87.68,38.36H82.8V36.17a5.77,5.77,0,0,0-4.39-5.57V15.21a1.46,1.46,0,0,0-1.47-1.46H42.27a1.46,1.46,0,0,0-1.46,1.46V55.35a1.46,1.46,0,0,0,1.46,1.47H64.83V58a5.75,5.75,0,0,0,5.75,5.73H83.41A5.74,5.74,0,0,0,89.15,58V39.82a1.46,1.46,0,0,0-1.47-1.46Zm-7.81-2.19v2.19H74.11V36.17a2.88,2.88,0,0,1,5.76,0ZM43.74,53.89V16.68H75.48v14a5.76,5.76,0,0,0-4.3,5.54v2.19H66.3a1.46,1.46,0,0,0-1.47,1.46V53.89ZM86.22,58a2.81,2.81,0,0,1-2.81,2.8H70.58A2.81,2.81,0,0,1,67.76,58V41.29h3.42v3.86a1.47,1.47,0,0,0,2.93,0V41.29h5.76v3.86a1.47,1.47,0,0,0,2.93,0V41.29h3.42Z"/><path class="cls-1" d="M51.05,20.08l-1.66,1.78-.11-.14A1.47,1.47,0,0,0,47,23.56L48.16,25a1.46,1.46,0,0,0,1.09.54h.06a1.47,1.47,0,0,0,1.07-.47l2.82-3a1.46,1.46,0,1,0-2.15-2Z"/><path class="cls-1" d="M58,24.05H71.08a1.47,1.47,0,1,0,0-2.93H58a1.47,1.47,0,1,0,0,2.93Z"/><path class="cls-1" d="M51.05,29l-1.66,1.79-.11-.14A1.47,1.47,0,0,0,47,32.45l1.17,1.46a1.46,1.46,0,0,0,1.09.54h.06A1.5,1.5,0,0,0,50.38,34l2.82-3a1.47,1.47,0,0,0-2.15-2Z"/><path class="cls-1" d="M58,32.94h8.2a1.47,1.47,0,0,0,0-2.93H58a1.47,1.47,0,1,0,0,2.93Z"/><path class="cls-1" d="M51.05,37.85l-1.66,1.79-.11-.14A1.47,1.47,0,1,0,47,41.33l1.17,1.46a1.51,1.51,0,0,0,1.09.55h.06a1.47,1.47,0,0,0,1.07-.47l2.82-3a1.47,1.47,0,1,0-2.15-2Z"/><path class="cls-1" d="M60.44,38.9H58a1.47,1.47,0,1,0,0,2.93h2.44a1.47,1.47,0,0,0,0-2.93Z"/><text class="cls-2" transform="translate(0 90.4)"><tspan class="cls-3">V</tspan><tspan class="cls-4" x="7.24" y="0">erifi</tspan><tspan class="cls-5" x="28.74" y="0">c</tspan><tspan x="34.82" y="0">ación del pedido</tspan></text><path class="cls-1" d="M1067.34,23.75l-22.89-1a1.18,1.18,0,1,0-.1,2.36l21.33.92-4.19,13.09h-18.67l-3.37-18.36a1.2,1.2,0,0,0-.73-.89l-5.53-2.17a1.18,1.18,0,0,0-.86,2.2l4.91,1.93,3.43,18.69a1.18,1.18,0,0,0,1.17,1h.56l-1.29,3.61a1,1,0,0,0,.11.9,1,1,0,0,0,.81.42h.91a3.55,3.55,0,1,0,6.2,2.37,3.52,3.52,0,0,0-.92-2.37H1056a3.54,3.54,0,0,0,2.63,5.92,3.56,3.56,0,0,0,3.56-3.55,3.52,3.52,0,0,0-.92-2.37h1.11a1,1,0,1,0,0-2h-18.91l1.06-3h17.85a1.18,1.18,0,0,0,1.13-.82l4.93-15.39a1.2,1.2,0,0,0-.15-1,1.22,1.22,0,0,0-.92-.51Zm-8.74,23.48a1.58,1.58,0,1,1-1.57,1.58,1.58,1.58,0,0,1,1.57-1.58Zm-13,0a1.58,1.58,0,1,1-1.59,1.58,1.57,1.57,0,0,1,1.59-1.58ZM1064.23,8.1l1.72-3a1.15,1.15,0,1,1,2,1.15l-1.72,3a1.14,1.14,0,0,1-1,.57,1.18,1.18,0,0,1-.57-.15,1.15,1.15,0,0,1-.42-1.57Zm11.13,12.27a1.15,1.15,0,0,1,.42-1.57l3-1.72a1.15,1.15,0,1,1,1.15,2l-3,1.72a1,1,0,0,1-.57.16,1.15,1.15,0,0,1-1-.58ZM1085,35a1.15,1.15,0,0,1-1.15,1.15h-3.45a1.15,1.15,0,0,1,0-2.3h3.45A1.14,1.14,0,0,1,1085,35Zm-4.69,17.5a1.15,1.15,0,0,1-1,.58,1.21,1.21,0,0,1-.58-.16l-3-1.72a1.15,1.15,0,0,1-.42-1.57,1.14,1.14,0,0,1,1.56-.42l3,1.72a1.14,1.14,0,0,1,.42,1.57Zm-12.39,11.24a1.15,1.15,0,0,1-.42,1.57,1.06,1.06,0,0,1-.57.15,1.14,1.14,0,0,1-1-.57l-1.72-3a1.15,1.15,0,0,1,2-1.15Zm-16.77,1.66v3.45a1.15,1.15,0,1,1-2.3,0V65.4a1.15,1.15,0,0,1,2.3,0Zm-15.35-3.5-1.73,3a1.16,1.16,0,0,1-1.57.42,1.16,1.16,0,0,1-.42-1.57l1.73-3a1.15,1.15,0,1,1,2,1.15Zm-11.13-12.28a1.14,1.14,0,0,1-.42,1.57l-3,1.73a1.2,1.2,0,0,1-.57.16,1.15,1.15,0,0,1-.58-2.15l3-1.73a1.16,1.16,0,0,1,1.57.42Zm-5.07-13.47h-3.45a1.15,1.15,0,1,1,0-2.3h3.45a1.15,1.15,0,0,1,0,2.3Zm5.07-15.78a1.15,1.15,0,0,1-1,.58,1.1,1.1,0,0,1-.57-.16l-3-1.72a1.15,1.15,0,0,1,1.15-2l3,1.72a1.15,1.15,0,0,1,.42,1.57Zm7.41-14.11a1.15,1.15,0,0,1,2-1.15l1.73,3a1.15,1.15,0,0,1-.42,1.57,1.19,1.19,0,0,1-.58.15,1.14,1.14,0,0,1-1-.57Zm16.77-1.66V1.15a1.15,1.15,0,0,1,2.3,0V4.6a1.15,1.15,0,0,1-2.3,0Z"/><text class="cls-2" transform="translate(986.82 90.4)"><tspan class="cls-6">C</tspan><tspan x="7.95" y="0">omp</tspan><tspan class="cls-7" x="34.19" y="0">r</tspan><tspan x="38.67" y="0">a </tspan><tspan class="cls-8" x="49.24" y="0">C</tspan><tspan class="cls-4" x="57.19" y="0">omp</tspan><tspan class="cls-5" x="83.43" y="0">l</tspan><tspan x="87.44" y="0">e</tspan><tspan class="cls-8" x="93.81" y="0">t</tspan><tspan class="cls-4" x="98.19" y="0">ada</tspan></text><path class="cls-1" d="M889.86,41.25h-148v-5h148c.93,0,1.68,1.12,1.68,2.5h0C891.54,40.13,890.79,41.25,889.86,41.25Z"/><path class="cls-1" d="M732.61,52.79a1.09,1.09,0,0,0-1.51.28A12.07,12.07,0,0,1,730,54.45a11.81,11.81,0,0,1-1.06,1A1.08,1.08,0,0,0,728.8,57a1.06,1.06,0,0,0,.82.39,1.13,1.13,0,0,0,.71-.26,14.49,14.49,0,0,0,1.24-1.18,15.57,15.57,0,0,0,1.32-1.62A1.1,1.1,0,0,0,732.61,52.79Z"/><path class="cls-1" d="M726.43,57.15h0a1.09,1.09,0,0,0,.44,2.08,1.11,1.11,0,0,0,.43-.09.2.2,0,0,0,.08,0,1.08,1.08,0,1,0-.92-2Z"/><path class="cls-1" d="M740.77,13.75H691.62A3.25,3.25,0,0,0,688.37,17V47.46a3.25,3.25,0,0,0,3.25,3.25H714.5a18.22,18.22,0,0,0,5.09,8.87c2.8,2.72,6,4.17,7.25,4.17s4.44-1.45,7.24-4.17a18.14,18.14,0,0,0,5.09-8.87h1.6A3.26,3.26,0,0,0,744,47.46V17A3.26,3.26,0,0,0,740.77,13.75Zm-50.23,8.69h51.31v4.35H690.54Zm1.08-6.52h49.15A1.08,1.08,0,0,1,741.85,17v3.27H690.54V17A1.08,1.08,0,0,1,691.62,15.92Zm41,42a13.78,13.78,0,0,1-5.8,3.62A13.73,13.73,0,0,1,721,58a16.09,16.09,0,0,1-4.86-11.71V40.9a49,49,0,0,0,10.67-4.51A50.4,50.4,0,0,0,737.5,40.9v5.35A16.09,16.09,0,0,1,732.64,58Zm8.13-9.43h-1.23a18.65,18.65,0,0,0,.13-2.28V40.07a1.07,1.07,0,0,0-.8-1,48.64,48.64,0,0,1-11.49-4.83,1.07,1.07,0,0,0-1.09,0A47.25,47.25,0,0,1,714.8,39a1.07,1.07,0,0,0-.8,1v6.18a18.65,18.65,0,0,0,.13,2.28H691.62a1.07,1.07,0,0,1-1.08-1.07V29h51.31V47.46A1.08,1.08,0,0,1,740.77,48.53Z"/><path class="cls-1" d="M701.41,36.58a5,5,0,0,0-1.9.38,4.9,4.9,0,0,0-6.79,4.51,4.88,4.88,0,0,0,6.79,4.5,4.79,4.79,0,0,0,1.9.39,4.89,4.89,0,0,0,0-9.78Zm-6.52,4.89a2.72,2.72,0,1,1,2.72,2.71A2.72,2.72,0,0,1,694.89,41.47Zm6.79,2.7a4.81,4.81,0,0,0,.82-2.7,4.86,4.86,0,0,0-.82-2.71,2.72,2.72,0,0,1,0,5.41Z"/><path class="cls-1" d="M693.8,33.86h5.59a1.09,1.09,0,1,0,0-2.18H693.8a1.09,1.09,0,0,0,0,2.18Z"/><path class="cls-1" d="M702.55,33.86h.06a1.09,1.09,0,0,0,0-2.18h-.06a1.09,1.09,0,0,0,0,2.18Z"/><path class="cls-1" d="M731.26,43.75l-5.81,5.81-3-3a1.09,1.09,0,0,0-1.54,1.54l3.81,3.81a1.11,1.11,0,0,0,.77.32,1.09,1.09,0,0,0,.77-.32l6.58-6.58a1.08,1.08,0,0,0,0-1.54A1.1,1.1,0,0,0,731.26,43.75Z"/><text class="cls-2" transform="translate(675.32 90.4)"><tspan class="cls-9">P</tspan><tspan x="7.28" y="0">agar </tspan><tspan class="cls-10" x="37.69" y="0">F</tspan><tspan class="cls-4" x="43.96" y="0">ac</tspan><tspan class="cls-11" x="57.73" y="0">t</tspan><tspan x="62.26" y="0">u</tspan><tspan class="cls-12" x="69.77" y="0">r</tspan><tspan x="74.25" y="0">a</tspan></text><path class="cls-1" d="M434.93,41.24,421.44,27.75a3.25,3.25,0,0,0-2.31-1H400.46V29h5.44v16.3h2.17V29h11.06a1.07,1.07,0,0,1,.77.32l1.85,1.85h-5a2.17,2.17,0,0,0-2.17,2.17V43.1a2.17,2.17,0,0,0,2.17,2.17h16.3V54A1.08,1.08,0,0,1,432,55.05h-2.26a7.6,7.6,0,0,0-15.05,0H399.29a7.6,7.6,0,0,0-15,0H382A1.08,1.08,0,0,1,380.9,54V44.18h-2.17V54A3.26,3.26,0,0,0,382,57.23h2.26a7.54,7.54,0,0,0,2.21,4.35H370v2.17H422.2a7.63,7.63,0,0,0,7.53-6.52H432A3.26,3.26,0,0,0,435.25,54V42a1.12,1.12,0,0,0-.32-.77Zm-48.6,14.9a5.44,5.44,0,1,1,5.44,5.44,5.44,5.44,0,0,1-5.44-5.44Zm10.75,5.44a7.59,7.59,0,0,0,2.21-4.35h15.39a7.66,7.66,0,0,0,2.21,4.35Zm25.12,0a5.44,5.44,0,1,1,5.44-5.44,5.44,5.44,0,0,1-5.44,5.44ZM416.77,43.1V33.31h7.16l9.14,9.15v.64Z"/><rect class="cls-1" x="390.68" y="55.05" width="2.17" height="2.17"/><rect class="cls-1" x="421.12" y="55.05" width="2.17" height="2.17"/><rect class="cls-1" x="370.03" y="51.79" width="5.43" height="2.17"/><rect class="cls-1" x="372.2" y="47.44" width="3.26" height="2.17"/><rect class="cls-1" x="373.29" y="43.1" width="2.17" height="2.17"/><path class="cls-1" d="M384.16,42A14.13,14.13,0,1,0,370,27.88,14.13,14.13,0,0,0,384.16,42Zm0-26.09a12,12,0,1,1-12,12,12,12,0,0,1,12-12Z"/><path class="cls-1" d="M384.16,37.66a1.06,1.06,0,0,0,.77-.32c.7-.7,6.84-7,6.84-11.63a7.61,7.61,0,1,0-15.22,0c0,4.66,6.14,10.93,6.84,11.63a1.07,1.07,0,0,0,.77.32Zm0-17.39a5.45,5.45,0,0,1,5.44,5.44c0,2.78-3.43,7.09-5.44,9.29-2-2.2-5.43-6.51-5.43-9.29a5.44,5.44,0,0,1,5.43-5.44Z"/><path class="cls-1" d="M387.42,25.71A3.26,3.26,0,1,0,384.16,29a3.26,3.26,0,0,0,3.26-3.26Zm-4.35,0a1.09,1.09,0,1,1,1.09,1.08,1.09,1.09,0,0,1-1.09-1.08Z"/><rect class="cls-1" x="411.33" y="47.44" width="4.35" height="2.17"/><text class="cls-2" transform="translate(359.71 90.4)">Da<tspan class="cls-8" x="16.48" y="0">t</tspan><tspan x="20.86" y="0">os de Envío</tspan></text></g></g></svg>