<svg xmlns="http://www.w3.org/2000/svg" viewBox="0 0 46.33 60"><defs><style>.cls-1{fill:#ed6c0c;}.cls-2{fill:#e05a00;}.cls-3{fill:#ffb600;}.cls-4{fill:#f6921e;}.cls-5{fill:#d85107;}.cls-6{fill:#4d4e4e;}.cls-7{fill:#e26600;}</style></defs><title>bitcoin-bio-mercados</title><g id="Capa_2" data-name="Capa 2"><g id="Carrito_de_Compras" data-name="Carrito de Compras"><path class="cls-1" d="M21.14,23.45,19.79,29c1.73.39,7,2.12,7.81-1.06S22.87,23.93,21.14,23.45Z"/><path class="cls-2" d="M27.6,28.08c.87-3.28-4.73-4.15-6.46-4.54L19.79,29"/><path class="cls-1" d="M23.07,15.83l-1.26,5.11c1.45.39,5.89,1.83,6.56-1.06S24.51,16.21,23.07,15.83Z"/><path class="cls-2" d="M28.37,19.88c.77-3-3.86-3.67-5.3-4l-1.26,5.11"/><path class="cls-3" d="M28.76.69A23.16,23.16,0,1,0,45.64,28.75,23.2,23.2,0,0,0,28.76.69Zm4.63,19.19a4,4,0,0,1-3.28,3.76c2.31,1.16,3.47,3,2.31,6.17-1.35,4-4.63,4.25-9,3.47l-1.06,4.25-2.51-.77L21,32.61a14.92,14.92,0,0,0-2-.48l-1.06,4.14-2.51-.67,1.06-4.24c-.58-.2-1.15-.29-1.83-.49L11.3,30l1.25-2.9,1.84.48A.9.9,0,0,0,15.54,27l1.64-6.66a.34.34,0,0,1,.29.1c-.09,0-.19-.1-.29-.1l1.16-4.72a1.32,1.32,0,0,0-1.16-1.45l-1.83-.48L16,11l3.47.86h0c.48.1,1.06.29,1.64.39L22.2,8.11l2.51.68-1.06,4.05c.67.19,1.35.29,2,.48l1-4.05,2.5.68-1.06,4.14C31.46,15.15,33.87,16.79,33.39,19.88Z"/><path class="cls-4" d="M.69,17.56A23.16,23.16,0,1,0,28.76.69m4.63,19.19a4,4,0,0,1-3.28,3.76c2.31,1.16,3.47,3,2.31,6.17-1.35,4-4.63,4.25-9,3.47l-1.06,4.25-2.51-.77L21,32.61a14.92,14.92,0,0,0-2-.48l-1.06,4.14-2.51-.67,1.06-4.24c-.58-.2-1.15-.29-1.83-.49L11.3,30l1.25-2.9,1.84.48A.9.9,0,0,0,15.54,27l1.64-6.66a.34.34,0,0,1,.29.1c-.09,0-.19-.1-.29-.1l1.16-4.72a1.32,1.32,0,0,0-1.16-1.45l-1.83-.48L16,11l3.47.86h0c.48.1,1.06.29,1.64.39L22.2,8.11l2.51.68-1.06,4.05c.67.19,1.35.29,2,.48l1-4.05,2.5.68-1.06,4.14C31.46,15.15,33.87,16.79,33.39,19.88Z"/><path class="cls-5" d="M45.44,29.62,32.9,17.08a4,4,0,0,1,.58,2.9,4,4,0,0,1-3.28,3.76c2.32,1.15,3.48,3,2.32,6.17-1.35,3.95-4.63,4.24-9,3.47l-1.06,4.24-2.61-.86L21,32.61a14.92,14.92,0,0,0-2-.48l-1.06,4.14-.58-.19,9.84,9.84A23.13,23.13,0,0,0,45.44,29.62Z"/><path class="cls-6" d="M5.71,51.51A2.68,2.68,0,0,1,7,51.8a2.12,2.12,0,0,1,.87.68,3.68,3.68,0,0,1,.48,1.06,5.41,5.41,0,0,1,.19,1.25,5,5,0,0,1-.38,2,5,5,0,0,1-1.06,1.64,3.82,3.82,0,0,1-1.64,1.06,4.49,4.49,0,0,1-2,.38H2.91a2.56,2.56,0,0,1-.77-.09,4.19,4.19,0,0,1-1-.2c-.29-.09-.67-.19-1-.29l2.6-11.09,2.41-.38-1,3.95a1.47,1.47,0,0,1,.58-.19c.38,0,.67-.1.87-.1M3.78,58.07a1.65,1.65,0,0,0,1-.29,2.49,2.49,0,0,0,.77-.67,7.1,7.1,0,0,0,.58-1A4.63,4.63,0,0,0,6.29,55,2.06,2.06,0,0,0,6,53.83a1,1,0,0,0-.87-.39,1.64,1.64,0,0,0-.58.1,2.84,2.84,0,0,0-.58.29L3,58h.48c0,.1.1.1.29.1Z"/><path class="cls-6" d="M11,59.71H8.7l1.93-8h2.31l-1.93,8m1.16-9a1.59,1.59,0,0,1-.87-.29.93.93,0,0,1-.38-.87A1.26,1.26,0,0,1,11,49a1,1,0,0,1,.39-.49c.09-.09.29-.29.48-.29a1.31,1.31,0,0,1,.58-.09,1.51,1.51,0,0,1,.87.29.92.92,0,0,1,.38.86,1.29,1.29,0,0,1-.09.58,1,1,0,0,1-.39.49c-.1.09-.29.28-.48.28S12.36,50.74,12.17,50.74Z"/><path class="cls-6" d="M15,49.68l2.41-.39-.58,2.42h2.51l-.49,1.83h-2.5l-.68,2.8a1.56,1.56,0,0,0-.1.67c0,.19,0,.39.1.48a1.31,1.31,0,0,0,.29.39,1.54,1.54,0,0,0,.68.09,1.51,1.51,0,0,0,.67-.09,2,2,0,0,0,.68-.19l.19,1.73c-.29.1-.68.19-1,.29a2.66,2.66,0,0,1-1.25.19,3.77,3.77,0,0,1-1.64-.29,1.91,1.91,0,0,1-.87-.86,2.72,2.72,0,0,1-.19-1.26,7.9,7.9,0,0,1,.19-1.44L15,49.68"/><path class="cls-6" d="M19.21,56.53a4.31,4.31,0,0,1,.39-1.93,5.44,5.44,0,0,1,1-1.64,4.8,4.8,0,0,1,3.57-1.45,4.87,4.87,0,0,1,1.25.1,2.82,2.82,0,0,1,1,.39l-.78,1.73a1.33,1.33,0,0,0-.67-.19,1.8,1.8,0,0,0-.77-.1,2.47,2.47,0,0,0-1.83.77,3,3,0,0,0-.68,2.13A1.77,1.77,0,0,0,22,57.59a1.5,1.5,0,0,0,1.25.48,2.59,2.59,0,0,0,.87-.1c.29-.09.48-.09.77-.19l.19,1.83a9.39,9.39,0,0,1-1,.29,5,5,0,0,1-1.26.1,4.26,4.26,0,0,1-1.64-.29,2.2,2.2,0,0,1-1.06-.77,2.25,2.25,0,0,1-.57-1.06,1.82,1.82,0,0,1-.39-1.35"/><path class="cls-6" d="M29.24,60a3.61,3.61,0,0,1-1.45-.29,2.53,2.53,0,0,1-1-.67A2.34,2.34,0,0,1,26.25,58a5.42,5.42,0,0,1-.19-1.35,5.87,5.87,0,0,1,.29-1.83,5.36,5.36,0,0,1,.86-1.64A4.21,4.21,0,0,1,28.66,52a4.09,4.09,0,0,1,1.93-.49A3.61,3.61,0,0,1,32,51.8a2.54,2.54,0,0,1,1,.68,2.31,2.31,0,0,1,.58,1.06,5.49,5.49,0,0,1,.19,1.35,5.83,5.83,0,0,1-.29,1.83,5.36,5.36,0,0,1-.86,1.64,4.35,4.35,0,0,1-1.45,1.16,4.08,4.08,0,0,1-1.93.48h0m1.16-6.56a1.36,1.36,0,0,0-.87.29,2.66,2.66,0,0,0-.68.77,2.81,2.81,0,0,0-.38,1,3.44,3.44,0,0,0-.1,1,2.1,2.1,0,0,0,.29,1.16.93.93,0,0,0,.87.38,1.21,1.21,0,0,0,.87-.28,2.65,2.65,0,0,0,.67-.78,2.77,2.77,0,0,0,.39-1,3.92,3.92,0,0,0,.09-1,2.06,2.06,0,0,0-.28-1.15A1,1,0,0,0,30.4,53.44Z"/><path class="cls-6" d="M36.28,59.71H34l1.92-8h2.32l-1.93,8m1.06-9a1.59,1.59,0,0,1-.87-.29.93.93,0,0,1-.38-.87,1.26,1.26,0,0,1,.09-.57,1,1,0,0,1,.39-.49c.1-.09.29-.29.48-.29a1.31,1.31,0,0,1,.58-.09,1.51,1.51,0,0,1,.87.29.92.92,0,0,1,.38.86,1.29,1.29,0,0,1-.09.58,1,1,0,0,1-.39.49.83.83,0,0,1-.48.28C37.73,50.64,37.53,50.74,37.34,50.74Z"/><path class="cls-6" d="M39.85,52.09c.19-.09.38-.09.58-.19s.48-.1.67-.19a2.59,2.59,0,0,1,.87-.1c.29,0,.68-.1,1.06-.1a3,3,0,0,1,2.51,1.06,3.23,3.23,0,0,1,.19,2.9l-1.06,4.34H42.45l1-4.25c.09-.29.09-.48.19-.77v-.67a.54.54,0,0,0-.29-.49,1.47,1.47,0,0,0-.67-.19,2.59,2.59,0,0,0-.87.1l-1.45,6.27H38l1.83-7.72"/><path class="cls-7" d="M11.3,30.1h0l4.34,4.34.77-3.08c-.58-.2-1.15-.29-1.83-.49Z"/><path class="cls-7" d="M28.66,12.84h0l-.38,1.25a13.3,13.3,0,0,1,3.08,1.45Z"/><path class="cls-1" d="M24.8,8.79h0l-1.06,4.05c.68.19,1.35.29,2,.48l.67-2.89Z"/><path class="cls-1" d="M29.34,9.85h0L28.28,14l.09.09c2.9,1,5.11,2.51,5.11,5.11L45.06,30.78c.19-.68.38-1.35.58-1.93A19.08,19.08,0,0,0,46,26.63Z"/><path class="cls-1" d="M31.55,44.76,22.78,36l-.39,1.44-2.51-.67.78-3L18.92,32h0l-1.06,4.15-2.51-.68v-.09l-.09.09L25.77,46A19.33,19.33,0,0,0,31.55,44.76Z"/><path class="cls-2" d="M34,43.6,23.55,33.19h-.1l-1.06,4.24L20,36.85l8.78,8.78A24.18,24.18,0,0,0,34,43.6Z"/></g></g></svg>