<svg xmlns="http://www.w3.org/2000/svg" viewBox="0 0 197.3 197.3"><defs><style>.cls-1{fill:#80bc00;}</style></defs><title>compra-bio-mercados</title><g id="Capa_2" data-name="Capa 2"><g id="Carrito_de_Compras" data-name="Carrito de Compras"><path class="cls-1" d="M138.69,22.82l4.86-8.41a3.24,3.24,0,1,1,5.61,3.23l-4.86,8.42a3.24,3.24,0,0,1-2.81,1.62,3.28,3.28,0,0,1-1.62-.43,3.24,3.24,0,0,1-1.18-4.43Zm31.36,34.6A3.22,3.22,0,0,1,171.24,53l8.41-4.86a3.24,3.24,0,0,1,3.24,5.61l-8.42,4.86a3.14,3.14,0,0,1-1.61.43,3.22,3.22,0,0,1-2.81-1.62ZM197.3,98.65a3.24,3.24,0,0,1-3.24,3.24h-9.73a3.24,3.24,0,0,1,0-6.48h9.73a3.24,3.24,0,0,1,3.24,3.24ZM184.07,148a3.22,3.22,0,0,1-2.8,1.63,3.29,3.29,0,0,1-1.62-.44l-8.41-4.86a3.24,3.24,0,1,1,3.23-5.61l8.42,4.86a3.23,3.23,0,0,1,1.18,4.42Zm-34.91,31.68a3.25,3.25,0,0,1-1.19,4.43,3.15,3.15,0,0,1-1.62.43,3.21,3.21,0,0,1-2.8-1.62l-4.87-8.41a3.24,3.24,0,1,1,5.61-3.24Zm-47.28,4.68v9.73a3.24,3.24,0,1,1-6.48,0v-9.73a3.24,3.24,0,1,1,6.47,0Zm-43.27-9.86-4.86,8.42a3.24,3.24,0,0,1-2.81,1.62,3.14,3.14,0,0,1-1.61-.43,3.24,3.24,0,0,1-1.19-4.43L53,171.24a3.24,3.24,0,1,1,5.61,3.23Zm-31.36-34.6a3.23,3.23,0,0,1-1.19,4.42l-8.42,4.87a3.24,3.24,0,0,1-3.24-5.61l8.42-4.87a3.25,3.25,0,0,1,4.43,1.19ZM13,101.89H3.24a3.24,3.24,0,0,1,0-6.48H13a3.24,3.24,0,0,1,0,6.48ZM27.25,57.42a3.25,3.25,0,0,1-4.43,1.19L14.4,53.75a3.24,3.24,0,0,1,3.24-5.61L26.06,53a3.23,3.23,0,0,1,1.19,4.42ZM48.14,17.64a3.24,3.24,0,0,1,5.61-3.24l4.86,8.42A3.24,3.24,0,1,1,53,26.06ZM95.41,13V3.24a3.24,3.24,0,1,1,6.48,0V13a3.24,3.24,0,1,1-6.48,0Z"/><path class="cls-1" d="M83.56,122.05v-4.83a3.9,3.9,0,1,0-7.8,0v4.83a3.9,3.9,0,0,0,7.8,0Zm-4.88,0v-4.83a1,1,0,0,1,2,0v4.83a1,1,0,1,1-2,0Z"/><path class="cls-1" d="M93.06,137.84V133a3.9,3.9,0,0,0-7.8,0v4.83a3.9,3.9,0,0,0,7.8,0Zm-4.88,0V133a1,1,0,1,1,2,0v4.83a1,1,0,0,1-2,0Z"/><path class="cls-1" d="M102.55,122.05v-4.83a3.9,3.9,0,1,0-7.8,0v4.83a3.9,3.9,0,0,0,7.8,0Zm-4.88,0v-4.83a1,1,0,0,1,2,0v4.83a1,1,0,1,1-2,0Z"/><path class="cls-1" d="M112,137.84V133a3.9,3.9,0,0,0-7.8,0v4.83a3.9,3.9,0,1,0,7.8,0Zm-4.88,0V133a1,1,0,1,1,2,0v4.83a1,1,0,0,1-2,0Z"/><path class="cls-1" d="M121.54,122.05v-4.83a3.91,3.91,0,0,0-7.81,0v4.83a3.91,3.91,0,0,0,7.81,0Zm-4.89,0v-4.83a1,1,0,0,1,2,0v4.83a1,1,0,1,1-2,0Z"/><path class="cls-1" d="M146.59,134l-10.17-17,.91-7.78h1.29a4.16,4.16,0,0,0,4.16-4.16v-4.77a4.16,4.16,0,0,0-4.16-4.16h-5.71V90.7a1.51,1.51,0,0,0-.31-.91h0l-5-6.33V78.13A3.19,3.19,0,0,0,124.37,75H118.5l-.12-.22c-.72-1.36-2.71-3.11-5.92-5.18a2.32,2.32,0,0,1-1.07-2V63.72a1.9,1.9,0,0,0,1.06-1.7V53.89a5.11,5.11,0,0,0-5.1-5.1h-5.54a5.11,5.11,0,0,0-5.1,5.1V62a1.9,1.9,0,0,0,1.06,1.7v3.87a2.32,2.32,0,0,1-1.07,2c-.53.34-1.12.74-1.73,1.17,0-.11,0-.23,0-.34a7.79,7.79,0,0,0-15.58,0A7.56,7.56,0,0,0,79.58,72c.17.83.34,1.6.49,2.32a5.56,5.56,0,0,0-5.35,9.6l4.34,3.51a12.29,12.29,0,0,0-4.16,8.76h-7l-.3-.57.13-.08c4.67-2.48,8.57-6.56,7-9.55s-7.15-2-11.82.44l-.14.07-2-3.69.13-.07a19.3,19.3,0,0,0,5.66-4.36c2.18-2.59,1.76-4.37,1.32-5.2S66.24,71,62.88,71.39a19.41,19.41,0,0,0-6.77,2.26l-.14.07L54.5,71A10.4,10.4,0,0,1,53.26,66a10.55,10.55,0,0,1,19.87-5l2.52,4.73a1.46,1.46,0,1,0,2.58-1.37l-2.52-4.73A13.47,13.47,0,1,0,51.92,72.32l12.7,23.89H58.68a4.17,4.17,0,0,0-4.17,4.16v4.77a4.17,4.17,0,0,0,4.17,4.16H60l.91,7.78L50.71,134a4.22,4.22,0,0,0,3,6.34,4,4,0,0,0,.6,0,4.21,4.21,0,0,0,3.61-2l4.54-7.58.33,2.81a1.47,1.47,0,0,0,1.45,1.29h.17a1.45,1.45,0,0,0,1.28-1.62L65,126.68,75.38,109.3h46.54l10.43,17.38-1.83,15.68a3.65,3.65,0,0,1-3.63,3.22H70.4a3.64,3.64,0,0,1-3.62-3.23l-.39-3.29a1.46,1.46,0,1,0-2.9.34l.39,3.29a6.56,6.56,0,0,0,6.53,5.81h56.48a6.56,6.56,0,0,0,6.53-5.81l1.39-11.9,4.55,7.58a4.22,4.22,0,0,0,7.23-4.34ZM64.29,89c4.7-2.5,7.65-2.06,7.87-1.65s-1.06,3.1-5.77,5.6l-.13.08-2.11-4,.14-.07ZM57.48,76.22a16.51,16.51,0,0,1,5.71-1.92c1.45-.16,2.09.15,2.16.28s0,.83-1,1.94a16.53,16.53,0,0,1-4.79,3.66l-.13.07-2.11-4,.14-.08ZM134,113l-2.22-3.68h2.65ZM104.34,96.21v-5L109,85.42h16.44l3,3.82h-6.61a1.46,1.46,0,0,0,0,2.92H130v4Zm20.29-18.08V82.5H109.7V78.13a.27.27,0,0,1,.27-.26h14.4a.26.26,0,0,1,.26.26ZM101.81,51.72h5.54a2.18,2.18,0,0,1,2.18,2.17V61h-9.9v-7.1a2.18,2.18,0,0,1,2.18-2.17ZM98.29,72a5.24,5.24,0,0,0,2.4-4.41V63.91h7.78v3.68a5.24,5.24,0,0,0,2.4,4.41,27.45,27.45,0,0,1,3.94,3H110a3.18,3.18,0,0,0-3.19,3.18v5.32l-5,6.34a1.44,1.44,0,0,0-.32.91v5.51H99.48a12.25,12.25,0,0,0-4.16-8.76L97.08,86,99.67,84a6.06,6.06,0,0,0,.84-.84A5.58,5.58,0,0,0,95.62,74l-.25,0c.8-.63,1.79-1.34,2.92-2.07Zm-5.08,7.56c.4-.56.77-2.41,2.71-2.61a2.61,2.61,0,0,1,1.94.58,2.65,2.65,0,0,1,0,4.14l-2.59,2.08-2.45,2q-.39-.21-.81-.39Zm-6-14a4.87,4.87,0,0,1,4.87,4.87,5.07,5.07,0,0,1-.11,1l-.57,2.69a.06.06,0,0,1,0,0L89.18,84.53a11.88,11.88,0,0,0-2-.16,11.76,11.76,0,0,0-2,.16l0-.09c-.51-2.4-1-5-2.76-13a5.15,5.15,0,0,1-.11-1,4.88,4.88,0,0,1,4.87-4.87Zm-11,15.76a2.66,2.66,0,1,1,4.43-2.88l.6,1.18,1.16,5.48.06.29-.81.38c-5.32-4.3-5.14-4.08-5.44-4.45Zm11,6a9.39,9.39,0,0,1,9.37,8.92H77.83a9.39,9.39,0,0,1,9.36-8.92Zm-24.28,22h2.64L63.34,113Zm-7.48,27.56a1.29,1.29,0,0,1-1.29.62h0a1.4,1.4,0,0,1-.48-.18,1.22,1.22,0,0,1-.59-.79,1.3,1.3,0,0,1,.15-1l10.41-17.36h0l5.72-9.53.06-.1,3.18-5.31a1.3,1.3,0,0,1,.8-.59,1.65,1.65,0,0,1,.31,0,1.3,1.3,0,0,1,1.11,2l-1.5,2.49,0,.08Zm21.7-30.48.19-.32a4.19,4.19,0,0,0,.48-3.19,4.21,4.21,0,0,0-5.11-3.06,4.16,4.16,0,0,0-2.59,1.92l-2.79,4.65H58.68a1.25,1.25,0,0,1-1.25-1.24v-4.77a1.25,1.25,0,0,1,1.25-1.24h79.94a1.24,1.24,0,0,1,1.24,1.24v4.77a1.24,1.24,0,0,1-1.24,1.24H130l-2.79-4.65a4.22,4.22,0,0,0-5.78-1.45,4.24,4.24,0,0,0-1.92,2.59,4.19,4.19,0,0,0,.48,3.19l.19.32Zm66,31.1a1.37,1.37,0,0,1-1.29-.62c-1.1-1.82-18.36-30.58-19.39-32.3a1.29,1.29,0,0,1,2.22-1.33c1.07,1.8,7.91,13.19,9,14.93h0l10.42,17.36a1.3,1.3,0,0,1-.92,1.95Z"/></g></g></svg>