<svg xmlns="http://www.w3.org/2000/svg" viewBox="0 0 60 60"><defs><style>.cls-1{fill:#008de4;}.cls-2{fill:#fff;}</style></defs><title>dash-bio-mercados</title><g id="Capa_2" data-name="Capa 2"><g id="Carrito_de_Compras" data-name="Carrito de Compras"><circle class="cls-1" cx="30" cy="30" r="30"/><path class="cls-2" d="M36.41,13.2H21.34l-1.24,7,13.6,0c6.7,0,8.68,2.43,8.62,6.46A29,29,0,0,1,41,33.36c-1,3-3.15,6.47-11.1,6.46H16.68l-1.25,7h15c5.31,0,7.57-.62,9.95-1.72,5.3-2.44,8.46-7.67,9.72-14.49C52,20.43,49.67,13.2,36.41,13.2"/><path class="cls-2" d="M14.83,26.49c-3.94,0-4.51,2.57-4.88,4.13-.49,2-.65,2.86-.65,2.86H24.73c3.95,0,4.52-2.58,4.89-4.13.49-2,.65-2.86.65-2.86Z"/></g></g></svg>