<svg xmlns="http://www.w3.org/2000/svg" xmlns:xlink="http://www.w3.org/1999/xlink" viewBox="0 0 150.76 49.83"><defs><style>.cls-1,.cls-3{fill:none;stroke-miterlimit:10;stroke-width:0.76px;}.cls-1{stroke:#999;}.cls-2{clip-path:url(#clip-path);}.cls-3{stroke:url(#linear-gradient);}.cls-4{fill:#999;}</style><clipPath id="clip-path"><path class="cls-1" d="M32.89,21.85l-6.77-3.91-13-7.53c-.73-.42-1.45-.16-1.45.71V41.81c0,.66.52.94,1.15.58l13.34-7.71,6.77-3.91L39.39,27c.76-.44.69-1,0-1.39S32.89,21.85,32.89,21.85Z"/></clipPath><linearGradient id="linear-gradient" x1="20.09" y1="8.79" x2="20.09" y2="43.84" gradientUnits="userSpaceOnUse"><stop offset="0" stop-color="#257db0"/><stop offset="0.21" stop-color="#3c90b3"/><stop offset="0.74" stop-color="#73bdb9"/><stop offset="1" stop-color="#89cebc"/></linearGradient></defs><title>descarga-app-android-bio</title><g id="Capa_2" data-name="Capa 2"><g id="Pie_de_pagina" data-name="Pie de pagina"><rect class="cls-1" x="0.38" y="0.38" width="150" height="49.07" rx="6.63"/><g id="PLAY"><g class="cls-2"><polygon class="cls-3" points="11.63 9.7 11.63 26.31 11.63 42.92 28.39 26.31 11.63 9.7"/><polygon class="cls-1" points="32.89 21.85 26.12 17.94 11.63 9.58 11.63 9.7 28.39 26.31 32.89 21.85"/><polygon class="cls-1" points="11.63 42.92 11.63 43.05 26.12 34.68 32.89 30.77 28.39 26.31 11.63 42.92"/><polygon class="cls-1" points="32.89 21.85 28.39 26.31 32.89 30.77 40.62 26.31 32.89 21.85"/></g><path class="cls-1" d="M32.89,21.85l-6.77-3.91-13-7.53c-.73-.42-1.45-.16-1.45.71V41.81c0,.66.52.94,1.15.58l13.34-7.71,6.77-3.91L39.39,27c.76-.44.69-1,0-1.39S32.89,21.85,32.89,21.85Z"/></g><path class="cls-4" d="M117.12,32.81a4.24,4.24,0,0,1-1.73-.35,3.29,3.29,0,0,1-1.31-1.07H114a13,13,0,0,1,.1,1.6v4h-1.46V23h1.19l.2,1.32h.07a3.48,3.48,0,0,1,1.32-1.15,4.06,4.06,0,0,1,1.72-.35,3.56,3.56,0,0,1,3,1.31,5.79,5.79,0,0,1,1,3.69,5.8,5.8,0,0,1-1.06,3.7A3.58,3.58,0,0,1,117.12,32.81ZM116.91,24a2.63,2.63,0,0,0-2.15.82,4.29,4.29,0,0,0-.68,2.61v.33a4.83,4.83,0,0,0,.68,2.91,2.58,2.58,0,0,0,2.18.88,2.26,2.26,0,0,0,2-1,4.78,4.78,0,0,0,.71-2.8A4.57,4.57,0,0,0,118.9,25,2.34,2.34,0,0,0,116.91,24Z"/><path class="cls-4" d="M124.52,32.63h-1.47V18.91h1.47Z"/><path class="cls-4" d="M132.93,32.63l-.29-1.38h-.07a4,4,0,0,1-1.44,1.23,4.32,4.32,0,0,1-1.8.33,3.26,3.26,0,0,1-2.25-.74,2.73,2.73,0,0,1-.81-2.11q0-2.92,4.68-3.07l1.64-.05v-.6a2.43,2.43,0,0,0-.49-1.68,2,2,0,0,0-1.57-.54,6.3,6.3,0,0,0-2.73.74l-.45-1.12a7,7,0,0,1,1.57-.61,6.56,6.56,0,0,1,1.7-.22,3.63,3.63,0,0,1,2.56.77A3.18,3.18,0,0,1,134,26v6.59Zm-3.3-1a3,3,0,0,0,2.14-.75,2.78,2.78,0,0,0,.78-2.1v-.87l-1.46.06a5.36,5.36,0,0,0-2.52.54,1.65,1.65,0,0,0-.77,1.5,1.48,1.48,0,0,0,.48,1.2A2,2,0,0,0,129.63,31.6Z"/><path class="cls-4" d="M134.87,23h1.57l2.11,5.51a21.72,21.72,0,0,1,.87,2.72h.07c.07-.3.23-.81.48-1.54s1-2.95,2.39-6.69h1.57l-4.15,11a5.51,5.51,0,0,1-1.44,2.32,3.11,3.11,0,0,1-2,.68,5.87,5.87,0,0,1-1.32-.15V35.65a5.09,5.09,0,0,0,1.08.1,2.24,2.24,0,0,0,2.16-1.69l.53-1.38Z"/><path class="cls-4" d="M90,23.86a3.29,3.29,0,0,1-.26,5.6,1.45,1.45,0,0,0-.56,1,1.1,1.1,0,0,0,.52.86l.73.57c.89.75,1.7,1.43,1.7,2.83,0,1.9-1.84,3.82-5.32,3.82-2.93,0-4.34-1.4-4.34-2.89A2.91,2.91,0,0,1,84,33.18a8.65,8.65,0,0,1,3.86-.93,2.13,2.13,0,0,1-.6-1.37,1.84,1.84,0,0,1,.2-.79c-.23,0-.45,0-.65,0A3.19,3.19,0,0,1,83.48,27a3.63,3.63,0,0,1,1.29-2.71,5.51,5.51,0,0,1,3.62-1.11h4.16l-1.29.72Zm-1.43,9a3.24,3.24,0,0,0-.46,0,8.18,8.18,0,0,0-2.13.32,2.28,2.28,0,0,0-1.74,2.08c0,1.44,1.4,2.47,3.56,2.47,1.94,0,3-.93,3-2.18C90.77,34.48,90.11,33.93,88.57,32.84ZM89.16,29a2.07,2.07,0,0,0,.5-1.48c0-1.45-.87-3.72-2.55-3.72a1.9,1.9,0,0,0-1.41.67,2.37,2.37,0,0,0-.45,1.5c0,1.35.79,3.59,2.53,3.59A2.1,2.1,0,0,0,89.16,29Z"/><path class="cls-4" d="M77.28,32.52a4.76,4.76,0,0,1-4.92-4.77,5,5,0,0,1,5.22-4.9,4.72,4.72,0,0,1,4.83,4.76A4.94,4.94,0,0,1,77.28,32.52Zm2.52-1.64a3.6,3.6,0,0,0,.61-2.24c0-1.77-.85-5.16-3.35-5.16a2.84,2.84,0,0,0-1.82.68,3.09,3.09,0,0,0-.93,2.46c0,2,1,5.29,3.44,5.29A2.56,2.56,0,0,0,79.8,30.88Z"/><path class="cls-4" d="M66.34,32.52a4.76,4.76,0,0,1-4.92-4.77,5,5,0,0,1,5.23-4.9,4.72,4.72,0,0,1,4.82,4.76A4.94,4.94,0,0,1,66.34,32.52Zm2.53-1.64a3.66,3.66,0,0,0,.6-2.24c0-1.77-.85-5.16-3.35-5.16a2.82,2.82,0,0,0-1.81.68,3.06,3.06,0,0,0-.93,2.46c0,2,1,5.29,3.43,5.29A2.59,2.59,0,0,0,68.87,30.88Z"/><path class="cls-4" d="M59.88,32.2l-2.9.67a22,22,0,0,1-3.35.34c-5.6,0-7.73-4.12-7.73-7.34,0-3.94,3-7.59,8.2-7.59a11.44,11.44,0,0,1,3.1.43A7.75,7.75,0,0,1,59.88,20l-1.69,1.6-.71.16.51-.81A5.8,5.8,0,0,0,53.65,19C50.44,19,48,21.45,48,25a7.17,7.17,0,0,0,7.18,7.4,6,6,0,0,0,2.58-.51V28.63l-3.07.16,1.63-.87h4.3l-.53.5a.51.51,0,0,0-.2.33c0,.18,0,.77,0,1Z"/><path class="cls-4" d="M96.42,31.62c-.67-.07-.81-.19-.81-1V19.16a.53.53,0,0,1,0-.13c.08-.71.28-.83.91-1.2h-2.9l-1.52.73h1.55V31.09c0,.4-.08.46-.55,1.07H96.7l.75-.44Z"/><path class="cls-4" d="M104.67,31.8c-.22.12-.44.27-.66.37a4.74,4.74,0,0,1-2,.38,4.29,4.29,0,0,1-2.68-.79,5.21,5.21,0,0,1-2.05-4.25,4.56,4.56,0,0,1,4.61-4.65,4,4,0,0,1,2.08.56,3.32,3.32,0,0,1,1.41,2l-4.74,1.92-1.55.12c.51,2.56,2.24,4.05,4.15,4.05a5.1,5.1,0,0,0,2.46-.71Zm-1.89-6c.38-.14.58-.26.58-.55a2,2,0,0,0-2-1.73,2.48,2.48,0,0,0-2.32,2.8c0,.34,0,.71.06,1.07Z"/><path class="cls-4" d="M106.62,23v1.33h-.16V23H106v-.13h1V23Z"/><path class="cls-4" d="M108.43,24.32V23h0L108,24.32h-.12L107.47,23h0v1.34h-.15V22.86h.25L108,24h0l.37-1.18h.25v1.46Z"/><path class="cls-4" d="M49.93,14.33h-1a7,7,0,0,0-.29-1.18H47.18a6.07,6.07,0,0,0-.3,1.18h-1c0-.08.25-.75.74-2a16.62,16.62,0,0,0,.74-2.09H48.6a17.33,17.33,0,0,0,.66,2.06A17.51,17.51,0,0,1,49.93,14.33Zm-1.46-1.78a17.16,17.16,0,0,1-.54-1.76h0a16.79,16.79,0,0,1-.55,1.76Z"/><path class="cls-4" d="M54,14.33h-.78A8.15,8.15,0,0,0,52.35,13a7.7,7.7,0,0,1-1-1.78h-.05a11.66,11.66,0,0,1,.08,1.25c0,.51,0,1.15,0,1.89h-.78c0-.65,0-1.36,0-2.14s0-1.42,0-2h.94a6,6,0,0,0,.77,1.33,8.28,8.28,0,0,1,1,1.68h0A11.93,11.93,0,0,1,53.25,12c0-.57,0-1.15,0-1.75H54c0,.52,0,1.17,0,2S54,13.69,54,14.33Z"/><path class="cls-4" d="M58.56,12.14A2.27,2.27,0,0,1,58,13.7a2,2,0,0,1-1.6.67c-.31,0-.74,0-1.29,0,0-.63,0-1.35,0-2.14s0-1.42,0-2H56.4a2.1,2.1,0,0,1,1.64.57A1.93,1.93,0,0,1,58.56,12.14Zm-.86.13a1.47,1.47,0,0,0-.36-1,1.31,1.31,0,0,0-1.07-.42l-.38,0c0,.42,0,.86,0,1.32s0,1,0,1.49a1.84,1.84,0,0,0,.41,0,1.19,1.19,0,0,0,1-.42A1.61,1.61,0,0,0,57.7,12.27Z"/><path class="cls-4" d="M62.77,14.33h-.94A5.91,5.91,0,0,0,61.27,13a.72.72,0,0,0-.63-.27h-.35c0,.54,0,1.08,0,1.63h-.87c0-.63,0-1.35,0-2.14s0-1.42,0-2h1.49c1,0,1.45.33,1.45,1a1.11,1.11,0,0,1-.83,1.09v.05a1,1,0,0,1,.56.5A10.66,10.66,0,0,1,62.77,14.33Zm-1.18-2.9c0-.41-.27-.62-.81-.62a2.68,2.68,0,0,0-.52,0c0,.33,0,.75,0,1.27h.29C61.25,12.13,61.59,11.9,61.59,11.43Z"/><path class="cls-4" d="M67.28,12.21a2.23,2.23,0,0,1-.59,1.6,1.92,1.92,0,0,1-1.46.64,1.87,1.87,0,0,1-1.4-.59,2.06,2.06,0,0,1-.56-1.48,2.3,2.3,0,0,1,.59-1.61,2,2,0,0,1,1.47-.63,1.84,1.84,0,0,1,1.39.58A2,2,0,0,1,67.28,12.21Zm-.87.09a1.65,1.65,0,0,0-.33-1.07,1.07,1.07,0,0,0-.84-.41,1,1,0,0,0-.78.41,1.67,1.67,0,0,0-.32,1,1.6,1.6,0,0,0,.34,1.07,1,1,0,0,0,.83.41,1,1,0,0,0,.78-.41A1.63,1.63,0,0,0,66.41,12.3Z"/><path class="cls-4" d="M69.06,14.33h-.89c0-.65,0-1.36,0-2.14s0-1.42,0-2h.89c0,.53,0,1.18,0,2S69,13.69,69.06,14.33Z"/><path class="cls-4" d="M73.63,12.14a2.31,2.31,0,0,1-.57,1.56,2,2,0,0,1-1.61.67c-.31,0-.74,0-1.28,0,0-.63,0-1.35,0-2.14s0-1.42,0-2h1.3a2.11,2.11,0,0,1,1.65.57A2,2,0,0,1,73.63,12.14Zm-.86.13a1.51,1.51,0,0,0-.35-1,1.34,1.34,0,0,0-1.08-.42l-.37,0q0,.63,0,1.32c0,.5,0,1,0,1.49a1.9,1.9,0,0,0,.41,0,1.18,1.18,0,0,0,1-.42A1.61,1.61,0,0,0,72.77,12.27Z"/><path class="cls-4" d="M79.69,14.33h-1a7,7,0,0,0-.29-1.18H76.94a6.07,6.07,0,0,0-.3,1.18h-1c0-.08.25-.75.74-2a15.56,15.56,0,0,0,.73-2.09h1.2A17.33,17.33,0,0,0,79,12.29,17.51,17.51,0,0,1,79.69,14.33Zm-1.46-1.78a17.16,17.16,0,0,1-.54-1.76h0a16.79,16.79,0,0,1-.55,1.76Z"/><path class="cls-4" d="M83.36,11.3a1.22,1.22,0,0,1-.56,1.12,2.47,2.47,0,0,1-1.37.36h-.21c0,.39,0,.92,0,1.56h-.89c0-.6,0-1.32,0-2.14s0-1.41,0-2h1.57a1.81,1.81,0,0,1,1,.27A.91.91,0,0,1,83.36,11.3Zm-.81.18c0-.45-.3-.68-.89-.68a2.8,2.8,0,0,0-.48,0c0,.4,0,.85,0,1.35h.18C82.17,12.21,82.55,12,82.55,11.48Z"/><path class="cls-4" d="M87.14,11.3a1.24,1.24,0,0,1-.56,1.12,2.47,2.47,0,0,1-1.37.36H85c0,.39,0,.92,0,1.56h-.88c0-.6,0-1.32,0-2.14s0-1.41,0-2h1.57a1.81,1.81,0,0,1,1,.27A.93.93,0,0,1,87.14,11.3Zm-.81.18c0-.45-.3-.68-.9-.68a2.69,2.69,0,0,0-.47,0c0,.4,0,.85,0,1.35h.18C86,12.21,86.33,12,86.33,11.48Z"/><path class="cls-4" d="M93.32,12.21a2.27,2.27,0,0,1-.59,1.6,2,2,0,0,1-1.47.64,1.85,1.85,0,0,1-1.39-.59,2.06,2.06,0,0,1-.56-1.48,2.3,2.3,0,0,1,.59-1.61,1.94,1.94,0,0,1,1.47-.63,1.86,1.86,0,0,1,1.39.58A2.07,2.07,0,0,1,93.32,12.21Zm-.87.09a1.6,1.6,0,0,0-.34-1.07,1,1,0,0,0-.83-.41,1,1,0,0,0-.78.41,1.61,1.61,0,0,0-.32,1,1.6,1.6,0,0,0,.34,1.07,1,1,0,0,0,.83.41,1,1,0,0,0,.78-.41A1.69,1.69,0,0,0,92.45,12.3Z"/><path class="cls-4" d="M97.59,14.33h-.78A7.87,7.87,0,0,0,95.94,13a7.53,7.53,0,0,1-1-1.78h0a11.66,11.66,0,0,1,.08,1.25c0,.51,0,1.15,0,1.89h-.77c0-.65.05-1.36.05-2.14s0-1.42-.05-2h.93a5.81,5.81,0,0,0,.78,1.33,8.05,8.05,0,0,1,1,1.68h0A11.93,11.93,0,0,1,96.85,12c0-.57,0-1.15,0-1.75h.79c0,.52,0,1.17,0,2S97.56,13.69,97.59,14.33Z"/></g></g></svg>