<svg xmlns="http://www.w3.org/2000/svg" viewBox="0 0 150.76 49.83"><defs><style>.cls-1{fill:none;stroke:#999;stroke-miterlimit:10;stroke-width:0.76px;}.cls-2{fill:#999;}</style></defs><title>descarga-app-ios-bio</title><g id="Capa_2" data-name="Capa 2"><g id="Pie_de_pagina" data-name="Pie de pagina"><rect class="cls-1" x="0.38" y="0.38" width="150" height="49.07" rx="6.63"/><path class="cls-2" d="M26.29,8.77H14.07a2.65,2.65,0,0,0-2.65,2.65V38.49a2.64,2.64,0,0,0,2.65,2.65H26.29a2.65,2.65,0,0,0,2.65-2.65V11.42A2.65,2.65,0,0,0,26.29,8.77ZM20.18,39.2a1.77,1.77,0,1,1,1.76-1.77A1.77,1.77,0,0,1,20.18,39.2Zm6.68-4.4H13.5v-20H26.86Z"/><path class="cls-2" d="M38.94,13.6l-.74,2.24h-1l2.43-7.15h1.11l2.44,7.15h-1l-.76-2.24Zm2.35-.73-.71-2c-.15-.47-.26-.9-.36-1.31h0c-.1.41-.22.86-.35,1.29l-.7,2.07Z"/><path class="cls-2" d="M44.19,10.71l1,2.87c.17.48.31.91.42,1.33h0c.12-.42.27-.85.44-1.33l1-2.87h1l-2,5.13h-.89l-2-5.13Z"/><path class="cls-2" d="M52.35,14.61a9.08,9.08,0,0,0,.07,1.23h-.84l-.08-.64h0A1.91,1.91,0,0,1,49.9,16a1.46,1.46,0,0,1-1.57-1.47c0-1.25,1.1-1.92,3.08-1.91v-.11a1.05,1.05,0,0,0-1.16-1.19,2.51,2.51,0,0,0-1.35.38L48.68,11a3.32,3.32,0,0,1,1.7-.45c1.58,0,2,1.07,2,2.1Zm-.92-1.39c-1,0-2.17.16-2.17,1.16a.81.81,0,0,0,.87.89,1.29,1.29,0,0,0,1.26-.86,1,1,0,0,0,0-.3Z"/><path class="cls-2" d="M54.23,9.76a.6.6,0,1,1,.62-.6.57.57,0,0,1-.62.6Zm-.44,6.08V10.71h.93v5.13Z"/><path class="cls-2" d="M56.22,8.31h.93v7.53h-.93Z"/><path class="cls-2" d="M62.27,14.61a9.08,9.08,0,0,0,.07,1.23H61.5l-.08-.64h0a1.88,1.88,0,0,1-1.57.76,1.46,1.46,0,0,1-1.57-1.47c0-1.25,1.11-1.92,3.09-1.91v-.11a1.06,1.06,0,0,0-1.17-1.19,2.5,2.5,0,0,0-1.34.38L58.6,11a3.32,3.32,0,0,1,1.7-.45c1.58,0,2,1.07,2,2.1Zm-.92-1.39c-1,0-2.17.16-2.17,1.16a.81.81,0,0,0,.87.89,1.29,1.29,0,0,0,1.26-.86,1,1,0,0,0,0-.3Z"/><path class="cls-2" d="M63.71,8.31h.93v3.22h0a1.9,1.9,0,0,1,1.75-.94c1.28,0,2.17,1.06,2.17,2.61,0,1.85-1.17,2.76-2.31,2.76a1.84,1.84,0,0,1-1.72-1h0l0,.84h-.8c0-.35,0-.87,0-1.32Zm.93,5.48a2,2,0,0,0,0,.34,1.46,1.46,0,0,0,1.4,1.09c1,0,1.56-.8,1.56-2s-.53-1.91-1.52-1.91a1.48,1.48,0,0,0-1.42,1.14,1.54,1.54,0,0,0,0,.39Z"/><path class="cls-2" d="M69.69,8.31h.93v7.53h-.93Z"/><path class="cls-2" d="M72.65,13.44a1.64,1.64,0,0,0,1.75,1.78A3.48,3.48,0,0,0,75.82,15l.17.66a4.15,4.15,0,0,1-1.72.33,2.39,2.39,0,0,1-2.52-2.59,2.5,2.5,0,0,1,2.42-2.78A2.17,2.17,0,0,1,76.28,13a2.64,2.64,0,0,1,0,.45Zm2.73-.67a1.34,1.34,0,0,0-1.29-1.52,1.55,1.55,0,0,0-1.43,1.52Z"/><path class="cls-2" d="M81.67,16a2.45,2.45,0,0,1-2.46-2.64,2.51,2.51,0,0,1,2.54-2.73,2.43,2.43,0,0,1,2.48,2.63A2.52,2.52,0,0,1,81.68,16Zm0-.7c.89,0,1.56-.84,1.56-2,0-.87-.43-2-1.54-2s-1.57,1-1.57,2,.64,2,1.54,2Z"/><path class="cls-2" d="M85.35,12.1c0-.54,0-1,0-1.39h.82l.06.84h0a1.9,1.9,0,0,1,1.7-1c.71,0,1.81.43,1.81,2.19v3.06h-.93v-3c0-.82-.31-1.52-1.19-1.52a1.34,1.34,0,0,0-1.25,1,1.23,1.23,0,0,0-.07.44v3.09h-.93Z"/><path class="cls-2" d="M94.51,9.48v1.23h1.33v.71H94.51v2.77c0,.64.18,1,.7,1a1.53,1.53,0,0,0,.54-.07l0,.71A2.39,2.39,0,0,1,95,16a1.37,1.37,0,0,1-1-.39,2,2,0,0,1-.36-1.35v-2.8H92.8v-.71h.79v-1Z"/><path class="cls-2" d="M96.84,8.31h.93v3.21h0a1.7,1.7,0,0,1,.67-.66,1.85,1.85,0,0,1,1-.27c.69,0,1.79.43,1.79,2.2v3.05h-.93V12.9c0-.84-.31-1.53-1.19-1.53a1.34,1.34,0,0,0-1.25.93,1,1,0,0,0-.07.45v3.09h-.93Z"/><path class="cls-2" d="M103.2,13.44A1.64,1.64,0,0,0,105,15.22a3.51,3.51,0,0,0,1.42-.26l.17.66a4.19,4.19,0,0,1-1.72.33,2.4,2.4,0,0,1-2.53-2.59,2.51,2.51,0,0,1,2.42-2.78A2.17,2.17,0,0,1,106.83,13a2.64,2.64,0,0,1,0,.45Zm2.73-.67a1.33,1.33,0,0,0-1.28-1.52,1.55,1.55,0,0,0-1.44,1.52Z"/><path class="cls-2" d="M110.58,9.76a.6.6,0,1,1,0-1.19.57.57,0,0,1,.59.59.58.58,0,0,1-.6.6Zm-.45,6.08V10.71h.94v5.13Z"/><path class="cls-2" d="M112.59,8.79a9.14,9.14,0,0,1,1.78-.15,2.93,2.93,0,0,1,2,.59,1.94,1.94,0,0,1,.64,1.5,2,2,0,0,1-.57,1.53,2.94,2.94,0,0,1-2.18.78,3.31,3.31,0,0,1-.74-.06v2.86h-.93Zm.93,3.44a3.28,3.28,0,0,0,.76.07c1.12,0,1.79-.55,1.79-1.52s-.67-1.41-1.68-1.41a3.89,3.89,0,0,0-.87.08Z"/><path class="cls-2" d="M118.1,8.31H119v3.21h0a1.61,1.61,0,0,1,.66-.66,1.85,1.85,0,0,1,1-.27c.69,0,1.79.43,1.79,2.2v3.05h-.93V12.9c0-.84-.31-1.53-1.19-1.53a1.35,1.35,0,0,0-1.25.93,1,1,0,0,0-.07.45v3.09h-.93Z"/><path class="cls-2" d="M126,16a2.45,2.45,0,0,1-2.47-2.64,2.52,2.52,0,0,1,2.55-2.73,2.42,2.42,0,0,1,2.47,2.63A2.51,2.51,0,0,1,126,16Zm0-.7c.89,0,1.56-.84,1.56-2,0-.87-.44-2-1.54-2s-1.57,1-1.57,2,.63,2,1.54,2Z"/><path class="cls-2" d="M129.71,12.1c0-.54,0-1-.05-1.39h.83l0,.84h0a1.89,1.89,0,0,1,1.69-1c.71,0,1.82.43,1.82,2.19v3.06h-.94v-3c0-.82-.3-1.52-1.18-1.52a1.35,1.35,0,0,0-1.26,1,1.51,1.51,0,0,0-.06.44v3.09h-.93Z"/><path class="cls-2" d="M136.07,13.44a1.64,1.64,0,0,0,1.75,1.78,3.44,3.44,0,0,0,1.42-.26l.17.66a4.14,4.14,0,0,1-1.71.33,2.4,2.4,0,0,1-2.53-2.59,2.5,2.5,0,0,1,2.42-2.78A2.17,2.17,0,0,1,139.7,13a2.64,2.64,0,0,1,0,.45Zm2.73-.67a1.34,1.34,0,0,0-1.28-1.52,1.55,1.55,0,0,0-1.44,1.52Z"/><path class="cls-2" d="M43.34,20.69,37.05,39.21h2.88l1.88-5.69H47.9l1.93,5.69h3L46.47,20.69Zm1.49,3c.22.83.44,1.69.74,2.62l1.69,4.91H42.44l1.67-5Q44.5,25.11,44.83,23.73Z"/><path class="cls-2" d="M60.93,25.49a5.21,5.21,0,0,0-4.45,2.14l-.11-1.85H53.8l0,.24c.07,1.15.11,2.41.11,4.22V44.52h2.8V37.86a4.92,4.92,0,0,0,3.83,1.64,5.77,5.77,0,0,0,4.24-1.8,7.67,7.67,0,0,0,1.88-5.39,7.42,7.42,0,0,0-1.63-4.92A5.32,5.32,0,0,0,60.93,25.49Zm-.7,2.32c2.5,0,3.62,2.31,3.62,4.6,0,3-1.43,4.8-3.72,4.8a3.43,3.43,0,0,1-3.4-3.51V31.45a3.53,3.53,0,0,1,.09-.69c0-.08,0-.16,0-.23A3.55,3.55,0,0,1,60.23,27.81Z"/><path class="cls-2" d="M75.36,25.49a5.2,5.2,0,0,0-4.45,2.14l-.12-1.85H68.23l0,.24c.07,1.15.1,2.41.1,4.22V44.52h2.81V37.86A4.89,4.89,0,0,0,75,39.5a5.79,5.79,0,0,0,4.25-1.8,7.67,7.67,0,0,0,1.88-5.39,7.48,7.48,0,0,0-1.63-4.92A5.33,5.33,0,0,0,75.36,25.49Zm-.7,2.32c2.5,0,3.62,2.31,3.62,4.6,0,3-1.43,4.8-3.72,4.8a3.41,3.41,0,0,1-3.31-2.6,3.88,3.88,0,0,1-.09-.91V31.45a3.63,3.63,0,0,1,.09-.7,1.7,1.7,0,0,1,0-.22A3.54,3.54,0,0,1,74.66,27.81Z"/><path class="cls-2" d="M93.43,28.53c-2.61-1-3.45-1.8-3.45-3.28,0-1.23,1-2.48,3.19-2.48a6.4,6.4,0,0,1,3.28.82l.24.15.79-2.34-.15-.09a8.06,8.06,0,0,0-4.08-.92c-3.58,0-6.07,2.11-6.07,5.13,0,2.44,1.56,4.14,4.92,5.36,2.37.89,3.26,1.8,3.26,3.36C95.36,36,94,37.1,91.8,37.1a7.75,7.75,0,0,1-4-1.14l-.24-.16-.76,2.39.14.09a9.57,9.57,0,0,0,4.74,1.22c4.81,0,6.52-2.94,6.52-5.45S96.79,29.86,93.43,28.53Z"/><path class="cls-2" d="M103.2,22.59l-2.74.87v2.32h-2V28h2v6.86a5.23,5.23,0,0,0,1,3.56,3.59,3.59,0,0,0,2.71,1.06,6.71,6.71,0,0,0,2.16-.33l.16-.06-.14-2.24-.26.08a4.24,4.24,0,0,1-1.31.15c-1.08,0-1.55-.69-1.55-2.3V28h3.38V25.78H103.2Z"/><path class="cls-2" d="M113.53,25.49c-3.92,0-6.66,2.92-6.66,7.11s2.65,6.9,6.44,6.9h0c3.2,0,6.66-2.23,6.66-7.14a7.06,7.06,0,0,0-1.79-4.95A6.22,6.22,0,0,0,113.53,25.49Zm-.08,2.21c2.52,0,3.66,2.46,3.66,4.74,0,2.81-1.56,4.85-3.72,4.85h0c-2.13,0-3.67-2-3.67-4.77C109.7,30.12,110.86,27.7,113.45,27.7Z"/><path class="cls-2" d="M128.58,25.62l-.17,0a2.4,2.4,0,0,0-.7-.09,4,4,0,0,0-3.51,2.25l-.08-2H121.6l0,.24c.07,1.11.1,2.35.1,4l0,9.16h2.8V32.07a7.34,7.34,0,0,1,.08-1.09,3.08,3.08,0,0,1,3-2.82c.28,0,.51,0,.75,0l.3,0Z"/><path class="cls-2" d="M134.88,25.46c-3.73,0-6.34,3-6.34,7.25,0,4.11,2.59,6.76,6.6,6.76a10.74,10.74,0,0,0,4.44-.85l.17-.07-.54-2.09-.23.09a8.71,8.71,0,0,1-3.51.63,3.89,3.89,0,0,1-4.2-4.06l9,0,0-.18a6.09,6.09,0,0,0,.08-1.17C140.43,28.88,139,25.46,134.88,25.46Zm-.19,2.13a2.8,2.8,0,0,1,2.06.79,4,4,0,0,1,1,2.61h-6.39C131.58,29.37,132.59,27.59,134.69,27.59Z"/></g></g></svg>