<svg xmlns="http://www.w3.org/2000/svg" viewBox="0 0 12.18 15"><defs><style>.cls-1{fill:#e1251b;}</style></defs><title>eliminar-bio-mercados</title><g id="Capa_2" data-name="Capa 2"><g id="Perfil_de_Usuario" data-name="Perfil de Usuario"><path class="cls-1" d="M8.16,5.43a.36.36,0,0,0-.35.36v6.64a.36.36,0,0,0,.71,0V5.79a.36.36,0,0,0-.36-.36Z"/><path class="cls-1" d="M6.09,5.43a.36.36,0,0,0-.35.36v6.64a.35.35,0,0,0,.35.35.35.35,0,0,0,.35-.35V5.79a.35.35,0,0,0-.35-.36Z"/><path class="cls-1" d="M4,5.43a.35.35,0,0,0-.35.36v6.64a.35.35,0,0,0,.35.35.35.35,0,0,0,.35-.35V5.79A.36.36,0,0,0,4,5.43Z"/><path class="cls-1" d="M1,4.47v8.65a2,2,0,0,0,.51,1.34A1.76,1.76,0,0,0,2.77,15H9.41a1.76,1.76,0,0,0,1.26-.54,2,2,0,0,0,.52-1.34V4.47a1.34,1.34,0,0,0-.35-2.64H9V1.39a1.4,1.4,0,0,0-.4-1,1.4,1.4,0,0,0-1-.4H4.53A1.38,1.38,0,0,0,3.14,1.39v.44H1.34A1.34,1.34,0,0,0,1,4.47ZM9.41,14.3H2.77A1.12,1.12,0,0,1,1.7,13.12V4.5h8.78v8.62A1.11,1.11,0,0,1,9.41,14.3ZM3.84,1.39A.68.68,0,0,1,4,.9.7.7,0,0,1,4.53.7H7.65a.7.7,0,0,1,.49.2.68.68,0,0,1,.2.49v.44H3.84ZM1.34,2.53h9.5a.63.63,0,1,1,0,1.26H1.34a.63.63,0,0,1,0-1.26Z"/></g></g></svg>