<svg xmlns="http://www.w3.org/2000/svg" xmlns:xlink="http://www.w3.org/1999/xlink" viewBox="0 0 87.46 60"><defs><style>.cls-1{fill:none;}.cls-2{fill:#3c3c3b;}.cls-3{opacity:0.6;}.cls-4{clip-path:url(#clip-path);}.cls-5{fill:#010101;}.cls-6{opacity:0.45;}.cls-7{clip-path:url(#clip-path-2);}.cls-8{opacity:0.8;}.cls-9{clip-path:url(#clip-path-3);}.cls-10{clip-path:url(#clip-path-4);}.cls-11{clip-path:url(#clip-path-5);}</style><clipPath id="clip-path"><rect class="cls-1" x="32.32" y="13.74" width="22.82" height="11.93"/></clipPath><clipPath id="clip-path-2"><rect class="cls-1" x="32.32" width="11.41" height="25.67"/></clipPath><clipPath id="clip-path-3"><rect class="cls-1" x="43.73" width="11.41" height="25.67"/></clipPath><clipPath id="clip-path-4"><rect class="cls-1" x="32.32" y="21.09" width="11.41" height="16.07"/></clipPath><clipPath id="clip-path-5"><rect class="cls-1" x="43.73" y="21.09" width="11.41" height="16.07"/></clipPath></defs><title>ethereum-bio-mercaods</title><g id="Capa_2" data-name="Capa 2"><g id="Carrito_de_Compras" data-name="Carrito de Compras"><path class="cls-2" d="M7.89,55.7a.35.35,0,0,1-.35.35H.71a3.4,3.4,0,0,0,3.23,3.22,3.19,3.19,0,0,0,2.81-1.44.34.34,0,0,1,.43-.14.32.32,0,0,1,.19.25.35.35,0,0,1,0,.24A3.85,3.85,0,0,1,3.93,60a4.26,4.26,0,0,1,0-8.5,4.13,4.13,0,0,1,4,4.24m-.73-.33a3.39,3.39,0,0,0-3.22-3.23A3.41,3.41,0,0,0,.71,55.37Zm9-3.74a.35.35,0,0,1,.34.34.34.34,0,0,1-.34.34H14.35v7.18a.35.35,0,0,1-.34.34.34.34,0,0,1-.34-.34V52.31H11.91a.33.33,0,0,1-.34-.34.34.34,0,0,1,.34-.34h1.76V49a.35.35,0,0,1,.27-.35.34.34,0,0,1,.41.34v2.64ZM27.34,55.1v4.35a.34.34,0,0,1-.34.34.33.33,0,0,1-.34-.34V55.1c0-1.47-.83-2.94-2.47-2.94-2.1,0-3,1.84-2.88,3.72,0,0,0,.27,0,.29v3.26a.35.35,0,0,1-.27.35.34.34,0,0,1-.41-.34V45.15a.35.35,0,0,1,.34-.34.34.34,0,0,1,.34.34v8.09a3.3,3.3,0,0,1,2.86-1.76c2,0,3.15,1.76,3.15,3.62m12.24.6a.35.35,0,0,1-.35.35H32.39a3.41,3.41,0,0,0,3.23,3.22,3.18,3.18,0,0,0,2.81-1.44.34.34,0,0,1,.43-.14.34.34,0,0,1,.2.25.41.41,0,0,1-.05.24A3.84,3.84,0,0,1,35.62,60a4.26,4.26,0,1,1,4-4.26m-.74-.33a3.23,3.23,0,1,0-6.45,0ZM48,51.94a.34.34,0,0,1-.32.37c-2,.29-2.91,1.93-2.91,3.84v3.26a.35.35,0,0,1-.27.35.34.34,0,0,1-.41-.34V52a.33.33,0,0,1,.28-.34.33.33,0,0,1,.4.33v1.52a3.65,3.65,0,0,1,2.86-1.86.35.35,0,0,1,.37.31M59.17,55.7a.35.35,0,0,1-.35.35H52a3.4,3.4,0,0,0,3.22,3.22A3.18,3.18,0,0,0,58,57.83a.35.35,0,0,1,.44-.14.35.35,0,0,1,.15.49A3.85,3.85,0,0,1,55.21,60a4.26,4.26,0,1,1,4-4.26m-.73-.33a3.23,3.23,0,1,0-6.45,0ZM70.19,52v7.46a.34.34,0,0,1-.34.34.33.33,0,0,1-.34-.34V58.07A3.2,3.2,0,0,1,66.67,60c-2,0-3.15-1.76-3.15-3.61V52a.35.35,0,0,1,.34-.34.34.34,0,0,1,.34.34v4.38c0,1.46.83,2.93,2.47,2.93,2.3,0,2.83-2.15,2.83-4.52V52a.35.35,0,0,1,.44-.33.38.38,0,0,1,.25.35m17.27,3v4.37a.34.34,0,0,1-.34.34.33.33,0,0,1-.34-.34V55.07c0-1.47-.83-2.91-2.47-2.91-2.06,0-2.84,2.2-2.84,3.91v3.37a.34.34,0,0,1-.34.34.33.33,0,0,1-.34-.34V55.07c0-1.47-.83-2.91-2.46-2.91-2.08,0-2.94,1.64-2.86,3.82,0,.05,0,.14,0,.17v3.28a.35.35,0,0,1-.28.35.34.34,0,0,1-.41-.34V52a.33.33,0,0,1,.28-.34.33.33,0,0,1,.4.33v1.25a3.28,3.28,0,0,1,2.86-1.74,3,3,0,0,1,2.91,2.18,3.38,3.38,0,0,1,3.07-2.18c2,0,3.16,1.73,3.16,3.59"/><g class="cls-3"><g class="cls-4"><path class="cls-5" d="M43.73,13.74,32.32,18.93l11.41,6.74,11.41-6.74Z"/></g></g><g class="cls-6"><g class="cls-7"><path class="cls-5" d="M32.32,18.93l11.41,6.74V0Z"/></g></g><g class="cls-8"><g class="cls-9"><path class="cls-5" d="M43.73,0V25.67l11.41-6.74Z"/></g></g><g class="cls-6"><g class="cls-10"><path class="cls-5" d="M32.32,21.09,43.73,37.17V27.83Z"/></g></g><g class="cls-8"><g class="cls-11"><path class="cls-5" d="M43.73,27.83v9.34L55.15,21.09Z"/></g></g></g></g></svg>