<svg xmlns="http://www.w3.org/2000/svg" viewBox="0 0 12.51 15"><defs><style>.cls-1{fill:#fff;}</style></defs><title>icono-puntos-bio</title><g id="Capa_2" data-name="Capa 2"><g id="Guias_y_recursos" data-name="Guias y recursos"><path class="cls-1" d="M11.26,5.6A4.77,4.77,0,0,0,7.62,4.2a9.19,9.19,0,0,0-2.16.27V0h-2V10.38A9.27,9.27,0,0,0,0,15s1.8-1.42,5.74-1a7.16,7.16,0,0,0,1,.13h0a4.52,4.52,0,0,0,.52,0,5.12,5.12,0,0,0,3.8-1.48,5,5,0,0,0,1.43-3.58A4.83,4.83,0,0,0,11.26,5.6M9.54,11.49a3.07,3.07,0,0,1-2.35,1,4.84,4.84,0,0,1-1-.12,8.29,8.29,0,0,0-3.12-.1A7.27,7.27,0,0,1,8.72,9.72a7.2,7.2,0,0,0-3.26-.14V6.17a7.16,7.16,0,0,1,2.05-.3,2.7,2.7,0,0,1,2.16.87,3.42,3.42,0,0,1,.75,2.33,3.53,3.53,0,0,1-.88,2.42"/></g></g></svg>