<svg xmlns="http://www.w3.org/2000/svg" viewBox="0 0 20 20"><defs><style>.cls-1{fill:#80bc00;}.cls-2{fill:#fff;fill-rule:evenodd;}</style></defs><title>icono-twitter-bio</title><g id="Capa_2" data-name="Capa 2"><g id="Cabecera"><circle class="cls-1" cx="10" cy="10" r="10"/><path class="cls-2" d="M14.78,7.78c0-.11,0-.22,0-.33A5.16,5.16,0,0,0,16,6.13a4.82,4.82,0,0,1-1.41.38A2.52,2.52,0,0,0,15.67,5.1a4.64,4.64,0,0,1-1.56.6,2.44,2.44,0,0,0-1.8-.84A2.48,2.48,0,0,0,9.85,7.42a3,3,0,0,0,.06.6A6.93,6.93,0,0,1,4.84,5.21,2.67,2.67,0,0,0,4.5,6.53a2.72,2.72,0,0,0,1.1,2.2,2.37,2.37,0,0,1-1.12-.34v0a2.63,2.63,0,0,0,2,2.6,2.82,2.82,0,0,1-.65.08,2.24,2.24,0,0,1-.46,0,2.48,2.48,0,0,0,2.3,1.83A4.8,4.8,0,0,1,4.59,14,5.65,5.65,0,0,1,4,14a6.61,6.61,0,0,0,3.77,1.18c4.53,0,7-3.94,7-7.36Z"/></g></g></svg>