<svg xmlns="http://www.w3.org/2000/svg" viewBox="0 0 20 20"><defs><style>.cls-1{fill:#80bc00;}.cls-2{fill:#fff;}</style></defs><title>icono-instagram-bio</title><g id="Capa_2" data-name="Capa 2"><g id="Cabecera"><circle class="cls-1" cx="10" cy="10" r="10"/><path class="cls-2" d="M12.25,4H7.75A3.75,3.75,0,0,0,4,7.75v4.5A3.75,3.75,0,0,0,7.75,16h4.5A3.75,3.75,0,0,0,16,12.25V7.75A3.75,3.75,0,0,0,12.25,4Zm2.63,8.25a2.63,2.63,0,0,1-2.63,2.63H7.75a2.62,2.62,0,0,1-2.62-2.63V7.75A2.62,2.62,0,0,1,7.75,5.13h4.5a2.62,2.62,0,0,1,2.63,2.62Z"/><path class="cls-2" d="M10,7a3,3,0,1,0,3,3A3,3,0,0,0,10,7Zm0,4.88A1.88,1.88,0,1,1,11.88,10,1.88,1.88,0,0,1,10,11.88Z"/><circle class="cls-2" cx="13.23" cy="6.77" r="0.4"/></g></g></svg>