<svg xmlns="http://www.w3.org/2000/svg" viewBox="0 0 20 20"><defs><style>.cls-1{fill:#80bc00;}.cls-2{fill:#fff;}</style></defs><title>icono-linkedin-bio</title><g id="Capa_2" data-name="Capa 2"><g id="Cabecera"><circle class="cls-1" cx="10" cy="10" r="10"/><path class="cls-2" d="M6,7.33H6A1.17,1.17,0,1,0,6,5,1.17,1.17,0,1,0,6,7.33Z"/><rect class="cls-2" x="4.9" y="8.25" width="2.24" height="6.75"/><path class="cls-2" d="M10.63,15V11.23a1.48,1.48,0,0,1,.07-.54,1.22,1.22,0,0,1,1.15-.83c.82,0,1.14.62,1.14,1.53V15h2.24V11.13c0-2.07-1.1-3-2.58-3a2.23,2.23,0,0,0-2,1.12v0h0l0,0v-1H8.38c0,.64,0,6.75,0,6.75Z"/></g></g></svg>