<svg xmlns="http://www.w3.org/2000/svg" viewBox="0 0 30 30"><defs><style>.cls-1{fill:#80bc00;}</style></defs><title>item-bio-mercados</title><g id="Capa_2" data-name="Capa 2"><g id="Registro"><path class="cls-1" d="M20.8,8.22l-8.33,8.33L9.2,13.29a1,1,0,0,0-1.44,0L6,15a1,1,0,0,0,0,1.44l5.73,5.73a1,1,0,0,0,1.44,0L24,11.41A1,1,0,0,0,24,10L22.24,8.22A1,1,0,0,0,20.8,8.22Z"/><path class="cls-1" d="M15,30A15,15,0,1,1,30,15,15,15,0,0,1,15,30ZM15,2.35A12.65,12.65,0,1,0,27.65,15,12.66,12.66,0,0,0,15,2.35Z"/></g></g></svg>