<svg xmlns="http://www.w3.org/2000/svg" viewBox="0 0 83.86 81.19"><defs><style>.cls-1{fill:#fff;}.cls-2{fill:#80bc00;}.cls-3{fill:#e1251b;}.cls-4{fill:#db3a2d;}</style></defs><title>logo-bio-mercados</title><g id="Capa_2" data-name="Capa 2"><g id="Pie_de_pagina" data-name="Pie de pagina"><polygon class="cls-1" points="71.78 58.9 12.57 58.9 12.57 51.34 54.14 49.38 58.34 49.38 71.78 51.34 71.78 58.9"/><rect class="cls-2" x="41.28" y="14.52" width="6.16" height="28.09"/><path class="cls-2" d="M66.21,44Q58.94,44,55,39.29a16.21,16.21,0,0,1-3.83-11.08q0-6.71,3.77-10.8Q58.94,13,66.15,13t11.21,4.71q3.7,4.26,3.71,11.08T77.36,39.63C74.73,42.5,71,44,66.21,44m-.06-25.77q-8.55,0-8.54,10a12.32,12.32,0,0,0,2.11,7.5,7.56,7.56,0,0,0,6.49,3.08q8.37,0,8.37-10a12.39,12.39,0,0,0-2-7.55,7.47,7.47,0,0,0-6.38-3.09"/><path class="cls-3" d="M61.92,53.17c-.88,0-1.28.82-1.28,2s.19,2.34,1.26,2.34c.89,0,1.26-.87,1.26-2.13s-.32-2.18-1.24-2.18"/><path class="cls-3" d="M52.92,55.42c0,1.1.27,2.06,1.25,2.06a1.12,1.12,0,0,0,1.19-1V53.35a2.14,2.14,0,0,0-.9-.2c-1.15,0-1.54,1.09-1.54,2.27"/><path class="cls-3" d="M45.22,55.53c0,1,.25,2,1.26,2a1.1,1.1,0,0,0,1.18-1.05V53.31a2.19,2.19,0,0,0-.9-.16c-1.15,0-1.54,1.08-1.54,2.38"/><path class="cls-3" d="M71,48.78C59.2,50.5,35.38,44.4,19.41,47.31A24.17,24.17,0,0,0,0,64.73S8.11,58.59,28,61c17.35,2.15,51.39,7.7,55.67-17.26,0,0-2.2,3.47-12.69,5M22.71,58.36H21.27V54.53c0-.71-.12-1.32-.92-1.32a1.12,1.12,0,0,0-1.09,1.18v4H17.83V54.53c0-.65-.09-1.32-.92-1.32a1.13,1.13,0,0,0-1.09,1.23v3.92H14.38v-5l-.11-1h1.2l.12.76a2,2,0,0,1,1.75-.94,1.71,1.71,0,0,1,1.68,1,2,2,0,0,1,1.77-1c1.22,0,1.92.72,1.92,2.14Zm5.2.18c-2,0-2.82-1.28-2.82-3.09s1-3.35,2.95-3.35c1.18,0,1.92.61,1.92,1.68,0,1.86-2.31,2.1-3.42,2.11a1.49,1.49,0,0,0,1.52,1.55,2.59,2.59,0,0,0,1.52-.53l.45,1a3.48,3.48,0,0,1-2.12.68m7.71-5a1.85,1.85,0,0,0-.86-.24,1.13,1.13,0,0,0-1.1,1.22v3.82H32.22v-5.1l-.11-1h1.18l.15.88A1.59,1.59,0,0,1,34.9,52.1a2,2,0,0,1,1,.24Zm4.63,3.82a2.25,2.25,0,0,0,1.38-.52l.55,1a3.32,3.32,0,0,1-2.1.7c-1.78,0-2.81-1.12-2.81-3.17,0-2.43,1.51-3.25,2.79-3.25a2.65,2.65,0,0,1,2.23,1.15l-.91.75a1.72,1.72,0,0,0-1.29-.75c-.81,0-1.38.66-1.38,2s.46,2.09,1.54,2.09m7.7,1-.08-.64,0,0a1.93,1.93,0,0,1-1.65.81c-1.71,0-2.37-1.2-2.37-2.93,0-2.13,1.06-3.48,3.14-3.48a6.75,6.75,0,0,1,2.15.43V57.2l.11,1.16Zm7.71,0-.09-.66h0a1.92,1.92,0,0,1-1.64.85c-1.89,0-2.39-1.48-2.39-3,0-2.07,1.07-3.46,2.93-3.46a2.8,2.8,0,0,1,.94.15V50h1.43v7.2l.11,1.19Zm6.14.18c-1.62,0-2.62-1-2.62-3.22,0-2.52,1.57-3.22,2.82-3.22.89,0,2.63.28,2.63,3.06,0,2.32-1.23,3.38-2.83,3.38m7.32-3.81C70,55,71,55.36,71,56.61s-.93,1.93-2.29,1.93a4,4,0,0,1-2.21-.62l.42-1a3.7,3.7,0,0,0,1.74.58c.5,0,.91-.24.91-.78s-.46-.71-1-.88c-.88-.25-1.87-.54-1.87-1.8a2,2,0,0,1,2.21-1.92,3.1,3.1,0,0,1,2.19.86l-.69.84a2.37,2.37,0,0,0-1.47-.65c-.44,0-.85.22-.85.7s.51.72,1.08.88"/><path class="cls-3" d="M28.68,53.84a.67.67,0,0,0-.73-.71c-1,0-1.42.94-1.46,1.84.66,0,2.19-.2,2.19-1.13"/><path class="cls-2" d="M34.87,17.34Q30.78,13,23.58,13a29.07,29.07,0,0,0-6.69.83V0H10.73V32.15C2.92,37,0,46.45,0,46.45s5.56-4.39,17.76-3.16a27.52,27.52,0,0,0,3.13.42h0c.55,0,1.1.06,1.63.06a15.8,15.8,0,0,0,11.76-4.6,15.28,15.28,0,0,0,4.44-11.08q0-6.7-3.88-10.75M29.55,35.57a9.55,9.55,0,0,1-7.3,3.16,15.63,15.63,0,0,1-3.11-.37,26.13,26.13,0,0,0-9.65-.31A22.5,22.5,0,0,1,27,30.11a22,22,0,0,0-10.13-.44V19.12a22,22,0,0,1,6.36-.95,8.39,8.39,0,0,1,6.69,2.69,10.71,10.71,0,0,1,2.32,7.23,10.87,10.87,0,0,1-2.71,7.48"/><rect class="cls-3" x="41.28" y="0.23" width="6.16" height="5.77"/><path class="cls-4" d="M.56,71.94h1V79h-1Z"/><path class="cls-4" d="M2.67,76.09a2.14,2.14,0,0,1,.14-.76,2.36,2.36,0,0,1,.43-.68,1.94,1.94,0,0,1,.69-.46,2.5,2.5,0,0,1,.9-.15H5a.76.76,0,0,1,.21,0l.23,0a1.13,1.13,0,0,1,.24.08,2.3,2.3,0,0,1,.4.23,3,3,0,0,1,.38.35,1.14,1.14,0,0,1,.27.47,2.17,2.17,0,0,1,.09.65V79h-1V76.17a1.35,1.35,0,0,0-.07-.44,1.69,1.69,0,0,0-.19-.41.92.92,0,0,0-.35-.3,1.12,1.12,0,0,0-.5-.1,1.22,1.22,0,0,0-.49.09,1,1,0,0,0-.35.27,1.15,1.15,0,0,0-.24.39,1.69,1.69,0,0,0-.12.44V79H2.67Z"/><path class="cls-4" d="M9.53,78.15a.06.06,0,0,0,.05,0H9.7l0,0h.12l.23,0a.66.66,0,0,0,.2-.06.26.26,0,0,0,.16-.11.48.48,0,0,0,.05-.22.44.44,0,0,0-.08-.25.55.55,0,0,0-.23-.19,1.92,1.92,0,0,0-.35-.16L9.41,77H9.35l-.06,0H9.22l-.06,0-.14,0-.12,0a2.33,2.33,0,0,1-.58-.21,2.29,2.29,0,0,1-.46-.3,1,1,0,0,1-.29-.4,1.21,1.21,0,0,1-.1-.52,1.52,1.52,0,0,1,.14-.68A.78.78,0,0,1,8,74.42a3.62,3.62,0,0,1,.61-.17,5.58,5.58,0,0,1,.73,0l1.83,0V75H9.3L9,75a1.36,1.36,0,0,0-.29.06.44.44,0,0,0-.19.12.32.32,0,0,0-.06.2.4.4,0,0,0,.07.24.51.51,0,0,0,.2.18,2.21,2.21,0,0,0,.27.12l.31.11.1,0,.08,0,0,0h.06l0,0h0l.06,0,.06,0h.06s0,0,0,0h0a5.12,5.12,0,0,1,.76.32,1.55,1.55,0,0,1,.48.33,1,1,0,0,1,.26.41,1.47,1.47,0,0,1,.09.53,1.51,1.51,0,0,1-.11.56.82.82,0,0,1-.27.36,1.54,1.54,0,0,1-.74.32H10l-.06,0H9.64l-.06,0H7.47v-.88Z"/><path class="cls-4" d="M12,76.57a3,3,0,0,1,.14-.94,1.88,1.88,0,0,1,.41-.7,2.86,2.86,0,0,1,.57-.49,2.56,2.56,0,0,1,.63-.29l.19-.05a.57.57,0,0,1,.18,0l.09,0h.26a3.3,3.3,0,0,1,.94.12,1.94,1.94,0,0,1,.69.39,3.8,3.8,0,0,1,.47.53,2.35,2.35,0,0,1,.3.59,2.17,2.17,0,0,1,.07.24,1,1,0,0,1,0,.24,1,1,0,0,1,0,.23,1.48,1.48,0,0,1,0,.21,1.55,1.55,0,0,1,0,.21A1,1,0,0,1,17,77a1,1,0,0,1,0,.24,1.82,1.82,0,0,1-.07.25,3.2,3.2,0,0,1-.27.56,2.69,2.69,0,0,1-.44.53,1.68,1.68,0,0,1-.63.39,3.33,3.33,0,0,1-.89.19l-.31,0L14,79.12,13.63,79a2.34,2.34,0,0,1-.44-.19v-1l.28.15.22.1.2.07.19.06.11,0h.35a1.79,1.79,0,0,0,.68-.12,1.12,1.12,0,0,0,.47-.36,2,2,0,0,0,.28-.54,2.27,2.27,0,0,0,.09-.65,1.94,1.94,0,0,0-.12-.7,1.66,1.66,0,0,0-.38-.53A1.79,1.79,0,0,0,15,75a1.38,1.38,0,0,0-.57-.11h-.14a.4.4,0,0,0-.15,0A.47.47,0,0,0,14,75l-.16.07a1.36,1.36,0,0,0-.35.24,1.83,1.83,0,0,0-.32.35,1.24,1.24,0,0,0-.23.46,2.35,2.35,0,0,0-.08.63v4.44H12Z"/><path class="cls-4" d="M17.89,72.85a.43.43,0,0,1,.13-.17l.18-.1a.68.68,0,0,1,.4,0,.54.54,0,0,1,.18.1.46.46,0,0,1,.14.17.53.53,0,0,1,0,.23.59.59,0,0,1,0,.23.43.43,0,0,1-.13.17.54.54,0,0,1-.18.1.58.58,0,0,1-.19,0,.44.44,0,0,1-.2,0,.54.54,0,0,1-.2-.1.46.46,0,0,1-.13-.18.85.85,0,0,1,0-.23v0A.65.65,0,0,1,17.89,72.85Zm0,1.33h.88V79h-.88Z"/><path class="cls-4" d="M20.84,74.18v.47s0,0,0,0l.05-.05,0-.06.06-.06.18-.15a1.16,1.16,0,0,1,.22-.13l.28-.1A1.66,1.66,0,0,1,22,74l.32,0v.88h-.24a1.51,1.51,0,0,0-.48.15,1.3,1.3,0,0,0-.35.25,1.66,1.66,0,0,0-.22.32,2,2,0,0,0-.13.34,1.29,1.29,0,0,0-.06.25.93.93,0,0,0,0,.23,1.86,1.86,0,0,0,0,.22V79H20V74.18Z"/><path class="cls-4" d="M26.58,76.24a1.36,1.36,0,0,0-.08-.44,1.66,1.66,0,0,0-.26-.41,1.14,1.14,0,0,0-.49-.3A2.41,2.41,0,0,0,25,75h-.14l-.17,0a.58.58,0,0,0-.18,0l-.18.08a1.22,1.22,0,0,0-.32.2,1.66,1.66,0,0,0-.29.3,1.08,1.08,0,0,0-.21.4,2,2,0,0,0-.11.54,1.86,1.86,0,0,0,.12.7,1.16,1.16,0,0,0,.33.5,2.6,2.6,0,0,0,.48.31,1.63,1.63,0,0,0,.52.15h.22l.23,0,.21,0,.1,0,.09,0,.09-.06a.22.22,0,0,0,.09-.07l.1-.07.1-.09a.94.94,0,0,1,.1-.1l.1-.09v1.1s0,0,0,0h0c-.08.06-.17.1-.25.15l-.28.11a2.24,2.24,0,0,1-.34.07,3.28,3.28,0,0,1-.47,0h-.13a2.2,2.2,0,0,1-.86-.17,2.24,2.24,0,0,1-.74-.51,2.38,2.38,0,0,1-.5-.82,3,3,0,0,1-.17-1,2.62,2.62,0,0,1,.17-.94,2.44,2.44,0,0,1,.48-.8,2,2,0,0,1,.8-.55,3.13,3.13,0,0,1,1.1-.18,3.21,3.21,0,0,1,1.07.16,2,2,0,0,1,.78.49,2.35,2.35,0,0,1,.48.68,1.92,1.92,0,0,1,.15.74V79h-1Z"/><path class="cls-4" d="M33.08,72v4.62a0,0,0,0,0,0,0h0v.06a1.8,1.8,0,0,1,0,.22,1.32,1.32,0,0,1,0,.26c0,.09,0,.18-.07.28a1.42,1.42,0,0,1-.1.29,2.55,2.55,0,0,1-.31.52,3.14,3.14,0,0,1-.44.46,1.48,1.48,0,0,1-.59.33,2.67,2.67,0,0,1-.78.11h-.12a3.57,3.57,0,0,1-1.06-.2,1.65,1.65,0,0,1-.72-.47,2.76,2.76,0,0,1-.45-.66,2.29,2.29,0,0,1-.21-.72l0-.1a.34.34,0,0,1,0-.1v-.22h0v-.06h0v0a2.56,2.56,0,0,1,.11-.86,1.92,1.92,0,0,1,.36-.66,3.29,3.29,0,0,1,.52-.48,2.71,2.71,0,0,1,.56-.29l.16-.06.18,0,.17,0h.16l.57,0a2.49,2.49,0,0,1,.38.08,1.51,1.51,0,0,1,.28.1,1,1,0,0,1,.21.11v.94h0l-.06,0,0,0,0,0h0l0,0-.23-.09-.29-.09a1.63,1.63,0,0,0-.3-.07l-.31,0h-.12s0,0,0,0h0a1.31,1.31,0,0,0-.46.15,2.34,2.34,0,0,0-.42.32,1.69,1.69,0,0,0-.3.48,1.83,1.83,0,0,0-.1.64v.16a2.25,2.25,0,0,0,.13.59,1.36,1.36,0,0,0,.25.41,1.26,1.26,0,0,0,.32.26,1.33,1.33,0,0,0,.34.16l.17,0,.16,0h.31a1.4,1.4,0,0,0,.66-.15,1.11,1.11,0,0,0,.44-.47,2.43,2.43,0,0,0,.24-.67,3.25,3.25,0,0,0,.08-.79V72Z"/><path class="cls-4" d="M34,75.48a2.38,2.38,0,0,1,.57-.78,2.92,2.92,0,0,1,.81-.5,2.53,2.53,0,0,1,.91-.16h.38a3,3,0,0,1,.78.23,3.42,3.42,0,0,1,.71.48,2,2,0,0,1,.51.75,3.16,3.16,0,0,1,.17,1.07v.08a.17.17,0,0,1,0,.07.22.22,0,0,1,0,.08v.08l0,.16,0,.16a2.5,2.5,0,0,1-.28.7,2.73,2.73,0,0,1-.48.62,1.72,1.72,0,0,1-.68.43,2.42,2.42,0,0,1-.88.15,3.53,3.53,0,0,1-1.19-.19,2,2,0,0,1-.81-.57,2.63,2.63,0,0,1-.47-.85,3,3,0,0,1-.16-1v0A2.67,2.67,0,0,1,34,75.48Zm.77,1.15c0,.05,0,.09,0,.14l0,.14a.51.51,0,0,1,0,.13,1.82,1.82,0,0,0,.17.44,2,2,0,0,0,.27.4.94.94,0,0,0,.42.28,1.57,1.57,0,0,0,.6.1,1.74,1.74,0,0,0,.61-.1,1.56,1.56,0,0,0,.51-.27,1.08,1.08,0,0,0,.35-.53,2.64,2.64,0,0,0,.12-.85,2.21,2.21,0,0,0-.1-.65,1.49,1.49,0,0,0-.31-.51,1.23,1.23,0,0,0-.5-.32,1.8,1.8,0,0,0-.68-.11,2,2,0,0,0-.63.09,1.11,1.11,0,0,0-.43.3,1.62,1.62,0,0,0-.28.42,1.83,1.83,0,0,0-.15.45l0,.08s0,.06,0,.08v.29Z"/><path class="cls-4" d="M41.32,78.15a0,0,0,0,0,0,0h.12l0,0h.12l.23,0a.83.83,0,0,0,.21-.06.22.22,0,0,0,.15-.11.48.48,0,0,0,.05-.22.43.43,0,0,0-.07-.25.62.62,0,0,0-.23-.19,2.29,2.29,0,0,0-.35-.16L41.2,77h-.06l-.06,0H41L41,77l-.14,0-.13,0a2.48,2.48,0,0,1-.58-.21,3,3,0,0,1-.46-.3,1.06,1.06,0,0,1-.29-.4,1.38,1.38,0,0,1-.09-.52,1.4,1.4,0,0,1,.14-.68.73.73,0,0,1,.42-.37,3.74,3.74,0,0,1,.62-.17,5.46,5.46,0,0,1,.73,0l1.83,0V75H41.09l-.34,0a1.24,1.24,0,0,0-.29.06.39.39,0,0,0-.19.12.32.32,0,0,0-.06.2.48.48,0,0,0,.06.24.59.59,0,0,0,.2.18,2.36,2.36,0,0,0,.28.12l.31.11.09,0,.09,0,0,0h0l0,0h0l.06,0,.06,0s0,0,0,0h0l0,0h0a5.12,5.12,0,0,1,.76.32,1.74,1.74,0,0,1,.49.33,1.15,1.15,0,0,1,.26.41,1.74,1.74,0,0,1,.08.53,1.52,1.52,0,0,1-.1.56,1,1,0,0,1-.27.36,1.54,1.54,0,0,1-.74.32H41.8l-.06,0h-.32l-.05,0H39.26v-.88Z"/><path class="cls-4" d="M50.09,75.45l0,0,0-.05,0,0-.06-.06-.07,0-.06-.06-.08,0-.09,0a.84.84,0,0,0-.24-.07,1.93,1.93,0,0,0-1,.12,1.24,1.24,0,0,0-.5.41,2,2,0,0,0-.41,1.21v0h0a1.55,1.55,0,0,0,.11.56,1.7,1.7,0,0,0,.31.51,1.34,1.34,0,0,0,.5.37,1.79,1.79,0,0,0,.68.12,2.19,2.19,0,0,0,.69-.1.78.78,0,0,0,.42-.29,2.31,2.31,0,0,0,.26-.47,4.5,4.5,0,0,0,.21-.62h0l.88,0v0s0,0,0,0V77s0,0,0,0v0a1,1,0,0,1,0,.17l0,.18,0,.09a.29.29,0,0,0,0,.09.36.36,0,0,0,0,.09l0,.1a2.39,2.39,0,0,1-.33.5,2.67,2.67,0,0,1-.49.45,2,2,0,0,1-.67.32,3.11,3.11,0,0,1-.84.11,2.86,2.86,0,0,1-1-.17,2.35,2.35,0,0,1-.82-.51,2.28,2.28,0,0,1-.56-.8,2.5,2.5,0,0,1-.18-1,3,3,0,0,1,.15-1,1.93,1.93,0,0,1,.46-.75,3.34,3.34,0,0,1,.63-.52,2.81,2.81,0,0,1,.7-.29l.08,0h.23l.15,0h.15a2.7,2.7,0,0,1,.77.11,2.52,2.52,0,0,1,.67.35,4.34,4.34,0,0,1,.53.52,3.67,3.67,0,0,1,.42.61L48.1,77.52l-.4-.71Z"/><path class="cls-4" d="M52.28,76.09a1.94,1.94,0,0,1,.14-.76,1.91,1.91,0,0,1,1.11-1.14,2.5,2.5,0,0,1,.9-.15h.18l.21,0,.22,0a1.13,1.13,0,0,1,.24.08,2.38,2.38,0,0,1,.41.23,3,3,0,0,1,.37.35,1.14,1.14,0,0,1,.27.47,2.17,2.17,0,0,1,.09.65V79h-1V76.17a1.67,1.67,0,0,0-.06-.44,1.73,1.73,0,0,0-.2-.41.89.89,0,0,0-.34-.3,1.16,1.16,0,0,0-.51-.1,1.21,1.21,0,0,0-.48.09,1,1,0,0,0-.36.27,1.58,1.58,0,0,0-.24.39,1.67,1.67,0,0,0-.11.44V79h-.88Z"/><path class="cls-4" d="M62.32,78.15a1.21,1.21,0,0,0,.43,0,1,1,0,0,0,.33-.14.66.66,0,0,0,.23-.24,1.17,1.17,0,0,0,.13-.36,1,1,0,0,0-.07-.35,1.09,1.09,0,0,0-.18-.31,1.66,1.66,0,0,0-.3-.29,3.89,3.89,0,0,0-.42-.25l-.08,0-.08,0-.08,0-.08,0h0c-.28-.14-.56-.28-.81-.43s-.51-.3-.75-.46a1.65,1.65,0,0,1-.52-.57,1.46,1.46,0,0,1-.18-.73h0v-.07h0v0A2,2,0,0,1,60,73a1.12,1.12,0,0,1,.33-.49,2,2,0,0,1,.46-.33,2.07,2.07,0,0,1,.52-.2h.08l.08,0h0l.05,0h.08l2.47,0v.88h-2.3a1.8,1.8,0,0,0-.38.08.7.7,0,0,0-.29.19.83.83,0,0,0-.18.25,1.43,1.43,0,0,0-.09.27s0,0,0,0v0h0v0h0a.88.88,0,0,0,0,.17.58.58,0,0,0,.06.17.57.57,0,0,0,.1.13l.13.1a3.79,3.79,0,0,0,.45.29l.41.24.38.19.37.19.09.06.09,0,0,0,.06,0a.05.05,0,0,0,0,0l0,0,.07,0,.07,0,.07,0,.08,0a2.45,2.45,0,0,1,.35.29,2.74,2.74,0,0,1,.32.36,1.83,1.83,0,0,1,.24.46,1.91,1.91,0,0,1,.08.54s0,.1,0,.16,0,.1,0,.16a.88.88,0,0,0,0,.16l0,.17a2.35,2.35,0,0,1-.19.43,1.79,1.79,0,0,1-.31.38,1.26,1.26,0,0,1-.5.27,2.7,2.7,0,0,1-.74.08H59.77v-.88Z"/><path class="cls-4" d="M68.46,75.45l0,0,0-.05,0,0-.06-.06-.07,0-.06-.06-.08,0-.09,0a.84.84,0,0,0-.24-.07,1.47,1.47,0,0,0-.31,0,1.52,1.52,0,0,0-.69.14,1.24,1.24,0,0,0-.5.41,2,2,0,0,0-.41,1.21v0h0a1.55,1.55,0,0,0,.11.56,1.7,1.7,0,0,0,.31.51,1.34,1.34,0,0,0,.5.37,1.79,1.79,0,0,0,.68.12,2.19,2.19,0,0,0,.69-.1.78.78,0,0,0,.42-.29,2.31,2.31,0,0,0,.26-.47,4.5,4.5,0,0,0,.21-.62h0l.88,0v0s0,0,0,0V77s0,0,0,0v0a1,1,0,0,1,0,.17l0,.18,0,.09s0,.06,0,.09a.36.36,0,0,0,0,.09l0,.1a2.39,2.39,0,0,1-.33.5,2.67,2.67,0,0,1-.49.45,2,2,0,0,1-.66.32,3.24,3.24,0,0,1-.85.11,2.86,2.86,0,0,1-1-.17,2.35,2.35,0,0,1-.82-.51,2.28,2.28,0,0,1-.56-.8,2.5,2.5,0,0,1-.18-1,3,3,0,0,1,.15-1,2.05,2.05,0,0,1,.46-.75,3.11,3.11,0,0,1,.64-.52,2.6,2.6,0,0,1,.69-.29l.08,0h.23l.15,0h.15a2.65,2.65,0,0,1,.77.11,2.38,2.38,0,0,1,.67.35,4.34,4.34,0,0,1,.53.52,3.67,3.67,0,0,1,.42.61l-3.35,1.81-.4-.71Z"/><path class="cls-4" d="M71.49,74.18v.47a.05.05,0,0,0,0,0l0-.05.05-.06.06-.06.18-.15a1,1,0,0,1,.23-.13,1.69,1.69,0,0,1,.27-.1,1.66,1.66,0,0,1,.32,0L73,74v.88h-.25a1.59,1.59,0,0,0-.48.15,1.11,1.11,0,0,0-.34.25,1.31,1.31,0,0,0-.22.32,1.43,1.43,0,0,0-.14.34,1.29,1.29,0,0,0-.06.25,2,2,0,0,0,0,.23,1.86,1.86,0,0,0,0,.22V79h-.88V74.18Z"/><path class="cls-4" d="M74.69,74.18,76.19,78l1.36-3.82h1l-1.68,4.38a1.26,1.26,0,0,1-.13.26.91.91,0,0,1-.17.17,1.18,1.18,0,0,1-.19.11l-.21.05h0a.76.76,0,0,1-.21,0,.62.62,0,0,1-.22-.1.77.77,0,0,1-.18-.18.93.93,0,0,1-.15-.26l-1.76-4.4Z"/><path class="cls-4" d="M79.39,72.85a.46.46,0,0,1,.14-.17,1,1,0,0,1,.17-.1.69.69,0,0,1,.2,0,.64.64,0,0,1,.2,0,.7.7,0,0,1,.19.1.43.43,0,0,1,.13.17.52.52,0,0,1,0,.23.59.59,0,0,1,0,.23.52.52,0,0,1-.12.17.7.7,0,0,1-.19.1.58.58,0,0,1-.19,0,.46.46,0,0,1-.2,0,.5.5,0,0,1-.19-.1.49.49,0,0,1-.14-.18.85.85,0,0,1,0-.23v0A.65.65,0,0,1,79.39,72.85Zm0,1.33h.89V79h-.89Z"/><path class="cls-4" d="M82.34,74.18v.47a.05.05,0,0,0,0,0l0-.05,0-.06.06-.06.18-.15a1,1,0,0,1,.23-.13,1.69,1.69,0,0,1,.27-.1,1.66,1.66,0,0,1,.32,0l.33,0v.88h-.25a1.59,1.59,0,0,0-.48.15,1.11,1.11,0,0,0-.34.25,1.31,1.31,0,0,0-.22.32,1.43,1.43,0,0,0-.14.34,1.29,1.29,0,0,0-.06.25,2,2,0,0,0,0,.23,1.86,1.86,0,0,0,0,.22V79h-.88V74.18Z"/></g></g></svg>