<svg xmlns="http://www.w3.org/2000/svg" viewBox="0 0 103.29 100"><defs><style>.cls-1{fill:#fff;}</style></defs><title>logo-bio-mercados-blanco</title><g id="Capa_2" data-name="Capa 2"><g id="Cabecera"><rect class="cls-1" x="50.84" y="17.89" width="7.59" height="34.6"/><path class="cls-1" d="M81.54,54.13q-8.94,0-13.86-5.73Q63,43,63,34.75t4.65-13.31q5-5.39,13.87-5.39t13.8,5.8q4.57,5.25,4.57,13.65T95.28,48.81q-4.86,5.31-13.74,5.32M81.48,22.4Q70.95,22.4,71,34.75A15.2,15.2,0,0,0,73.55,44a9.33,9.33,0,0,0,8,3.8q10.32,0,10.32-12.28,0-5.91-2.52-9.3a9.2,9.2,0,0,0-7.86-3.8"/><path class="cls-1" d="M76.27,65.48c-1.08,0-1.58,1-1.58,2.44s.23,2.87,1.55,2.87c1.09,0,1.55-1.07,1.55-2.62s-.39-2.69-1.52-2.69"/><path class="cls-1" d="M65.18,68.26c0,1.36.33,2.53,1.54,2.53a1.38,1.38,0,0,0,1.47-1.23V65.7a2.8,2.8,0,0,0-1.12-.23c-1.41,0-1.89,1.33-1.89,2.79"/><path class="cls-1" d="M55.7,68.4c0,1.23.3,2.41,1.55,2.41a1.37,1.37,0,0,0,1.46-1.3V65.66a3,3,0,0,0-1.12-.19c-1.41,0-1.89,1.32-1.89,2.93"/><path class="cls-1" d="M87.44,60.08c-14.52,2.11-43.86-5.39-63.53-1.81A29.77,29.77,0,0,0,0,79.72s10-7.55,34.49-4.53c21.38,2.63,63.31,9.48,68.57-21.26,0,0-2.7,4.26-15.62,6.15M28,71.88H26.2V67.16c0-.88-.15-1.62-1.13-1.62A1.37,1.37,0,0,0,23.73,67v4.88H22V67.16c0-.8-.11-1.62-1.13-1.62a1.41,1.41,0,0,0-1.35,1.52v4.82H17.71V65.69l-.13-1.3h1.47l.15.94a2.47,2.47,0,0,1,2.16-1.15,2.12,2.12,0,0,1,2.07,1.18,2.42,2.42,0,0,1,2.18-1.18c1.5,0,2.36.87,2.36,2.62Zm6.4.22c-2.46,0-3.47-1.58-3.47-3.81s1.27-4.11,3.63-4.11c1.46,0,2.37.74,2.37,2.06,0,2.29-2.84,2.59-4.21,2.6a1.84,1.84,0,0,0,1.87,1.91,3.25,3.25,0,0,0,1.88-.66L37,71.26a4.31,4.31,0,0,1-2.62.84M43.87,66a2.16,2.16,0,0,0-1.06-.29,1.41,1.41,0,0,0-1.36,1.5v4.7H39.69V65.6l-.14-1.21H41l.18,1.09a1.94,1.94,0,0,1,1.8-1.3,2.41,2.41,0,0,1,1.19.29Zm5.7,4.7A2.77,2.77,0,0,0,51.28,70L52,71.22a4.09,4.09,0,0,1-2.59.86c-2.19,0-3.45-1.38-3.45-3.9,0-3,1.86-4,3.43-4a3.26,3.26,0,0,1,2.75,1.4L51,66.51a2.14,2.14,0,0,0-1.6-.93c-1,0-1.69.83-1.69,2.52s.56,2.57,1.89,2.57m9.49,1.21-.1-.79-.06,0a2.41,2.41,0,0,1-2,1c-2.1,0-2.92-1.49-2.92-3.61,0-2.62,1.31-4.28,3.88-4.28a8.15,8.15,0,0,1,2.65.52v5.75l.13,1.43Zm9.5,0-.11-.81h-.07a2.38,2.38,0,0,1-2,1c-2.33,0-2.94-1.82-2.94-3.67,0-2.55,1.32-4.25,3.61-4.25a3.84,3.84,0,0,1,1.16.17V61.54H70v8.88l.13,1.46Zm7.56.22c-2,0-3.23-1.28-3.23-4,0-3.09,1.94-3.95,3.47-3.95,1.1,0,3.25.34,3.25,3.75,0,2.86-1.52,4.17-3.49,4.17m9-4.69c1.09.35,2.29.78,2.29,2.31s-1.14,2.38-2.81,2.38a4.9,4.9,0,0,1-2.72-.76l.52-1.26a4.45,4.45,0,0,0,2.13.71c.62,0,1.12-.28,1.12-1S85.1,69,84.4,68.75c-1.09-.31-2.31-.67-2.31-2.21a2.44,2.44,0,0,1,2.73-2.36,3.83,3.83,0,0,1,2.69,1l-.84,1a2.89,2.89,0,0,0-1.82-.8c-.54,0-1,.27-1,.86s.62.88,1.32,1.08"/><path class="cls-1" d="M35.32,66.32a.82.82,0,0,0-.89-.88c-1.19,0-1.76,1.16-1.8,2.26.8,0,2.69-.24,2.69-1.38"/><path class="cls-1" d="M43,21.36Q37.91,16,29.05,16a35.5,35.5,0,0,0-8.24,1V0H13.22V39.6C3.6,45.63,0,57.21,0,57.21s6.85-5.4,21.87-3.89a36.66,36.66,0,0,0,3.86.52h0c.68,0,1.35.07,2,.07q8.86,0,14.48-5.66A18.81,18.81,0,0,0,47.72,34.6q0-8.25-4.77-13.24M36.39,43.81a11.7,11.7,0,0,1-9,3.89,18.91,18.91,0,0,1-3.84-.45,32,32,0,0,0-11.88-.38,27.68,27.68,0,0,1,21.58-9.79,27.38,27.38,0,0,0-12.46-.54v-13a26.89,26.89,0,0,1,7.82-1.16c3.59,0,6.33,1.1,8.24,3.31s2.86,5.17,2.86,8.9a13.33,13.33,0,0,1-3.34,9.21"/><rect class="cls-1" x="50.84" y="0.28" width="7.59" height="7.1"/><path class="cls-1" d="M.69,88.61H1.87v8.74H.69Z"/><path class="cls-1" d="M3.29,93.72a2.66,2.66,0,0,1,.17-.94A2.85,2.85,0,0,1,4,92a2.36,2.36,0,0,1,.85-.57,2.92,2.92,0,0,1,1.1-.19h.22l.26,0,.28.06.29.1a2.5,2.5,0,0,1,.5.29,3,3,0,0,1,.46.42,1.55,1.55,0,0,1,.34.59,2.74,2.74,0,0,1,.11.79v3.86H7.22V93.82a2,2,0,0,0-.33-1,1.07,1.07,0,0,0-.42-.37,1.5,1.5,0,0,0-.63-.13,1.38,1.38,0,0,0-.59.12,1.09,1.09,0,0,0-.44.33,2,2,0,0,0-.29.48,2.39,2.39,0,0,0-.15.54v3.61H3.29Z"/><path class="cls-1" d="M11.74,96.26l0,0h.35l.28,0a1.11,1.11,0,0,0,.26-.07.33.33,0,0,0,.19-.14.54.54,0,0,0,.06-.27.48.48,0,0,0-.1-.31.75.75,0,0,0-.28-.24,2.53,2.53,0,0,0-.43-.18l-.53-.18-.07,0-.08,0-.08,0h-.08l-.17,0-.15,0a3.37,3.37,0,0,1-.72-.27,2.44,2.44,0,0,1-.56-.36,1.33,1.33,0,0,1-.36-.49A1.62,1.62,0,0,1,9.2,93a1.74,1.74,0,0,1,.18-.84.94.94,0,0,1,.52-.46,3.53,3.53,0,0,1,.76-.2,5,5,0,0,1,.9-.07l2.25,0v1H11.46l-.42,0a1.91,1.91,0,0,0-.36.07.42.42,0,0,0-.23.15.41.41,0,0,0-.08.25.55.55,0,0,0,.08.29.67.67,0,0,0,.25.22l.34.16.38.13.12,0,.1,0,0,0h.07l.05,0h0l.07,0,.08,0h.07l0,0h0a8.15,8.15,0,0,1,.94.39,2.72,2.72,0,0,1,.6.41,1.32,1.32,0,0,1,.31.51,1.88,1.88,0,0,1,.11.65,1.93,1.93,0,0,1-.13.69,1,1,0,0,1-.33.44,1.94,1.94,0,0,1-.43.27,2.14,2.14,0,0,1-.48.13l-.17,0H9.2V96.26Z"/><path class="cls-1" d="M14.77,94.3a3.71,3.71,0,0,1,.17-1.15,2.26,2.26,0,0,1,.51-.86,3.85,3.85,0,0,1,.7-.6,3.05,3.05,0,0,1,.78-.36l.22-.07.23,0,.11,0h.32a3.7,3.7,0,0,1,1.16.16,2.13,2.13,0,0,1,.85.47,4.43,4.43,0,0,1,.58.66,3.07,3.07,0,0,1,.37.72c0,.1.06.2.08.29a1,1,0,0,1,0,.3c0,.1,0,.2,0,.28a2.35,2.35,0,0,1,0,.26,2.62,2.62,0,0,1,0,.27c0,.09,0,.19,0,.29a1,1,0,0,1,0,.3c0,.1-.05.2-.08.3a4.1,4.1,0,0,1-.34.7,3.46,3.46,0,0,1-.53.64,2.16,2.16,0,0,1-.79.49,4.27,4.27,0,0,1-1.1.23,2.31,2.31,0,0,1-.37,0l-.4-.07-.45-.14a4.19,4.19,0,0,1-.55-.24V95.88l.35.18.28.13.24.08.23.07.13,0h.14l.14,0h.16a2.09,2.09,0,0,0,.83-.15,1.27,1.27,0,0,0,.58-.44,2,2,0,0,0,.34-.67,2.53,2.53,0,0,0,.12-.8,2.26,2.26,0,0,0-.15-.85,1.74,1.74,0,0,0-.47-.66,2.28,2.28,0,0,0-.65-.41,1.86,1.86,0,0,0-.7-.14l-.17,0-.19,0-.2.05-.2.09a2.32,2.32,0,0,0-.43.29,4.18,4.18,0,0,0-.39.43,1.65,1.65,0,0,0-.28.58,3,3,0,0,0-.09.77V100H14.77Z"/><path class="cls-1" d="M22,89.73a.46.46,0,0,1,.16-.21.94.94,0,0,1,.22-.12.67.67,0,0,1,.24,0,1,1,0,0,1,.25,0,.85.85,0,0,1,.22.13.56.56,0,0,1,.17.21.58.58,0,0,1,.06.28.64.64,0,0,1-.06.28.57.57,0,0,1-.15.21.89.89,0,0,1-.23.13.85.85,0,0,1-.23,0,.69.69,0,0,1-.25,0,.68.68,0,0,1-.24-.12A.44.44,0,0,1,22,90.3.71.71,0,0,1,22,90v0A.51.51,0,0,1,22,89.73Zm0,1.63h1.09v6H22.07Z"/><path class="cls-1" d="M25.66,91.36V92a.1.1,0,0,0,.05,0l.05-.06a.23.23,0,0,1,.07-.07l.07-.08.22-.19a2.32,2.32,0,0,1,.28-.16,1.5,1.5,0,0,1,.34-.12,1.64,1.64,0,0,1,.4,0l.39,0v1.09h-.29a1.84,1.84,0,0,0-.6.19,1.35,1.35,0,0,0-.43.31,2,2,0,0,0-.26.39,1.85,1.85,0,0,0-.17.42,2,2,0,0,0-.08.31,2.83,2.83,0,0,0,0,.29c0,.1,0,.18,0,.26v2.93H24.58v-6Z"/><path class="cls-1" d="M32.74,93.91a1.32,1.32,0,0,0-.11-.55,1.79,1.79,0,0,0-.31-.5,1.21,1.21,0,0,0-.6-.37,2.88,2.88,0,0,0-.94-.13H30.6l-.2,0-.23,0-.22.1a2.06,2.06,0,0,0-.39.24,4.25,4.25,0,0,0-.36.37,1.62,1.62,0,0,0-.26.49,2.28,2.28,0,0,0-.12.67,2.57,2.57,0,0,0,.13.87,1.53,1.53,0,0,0,.41.61,2.42,2.42,0,0,0,.6.38,1.75,1.75,0,0,0,.64.18h.06l0,0h.17l.28,0,.26-.07.12,0,.11,0,.12-.08.11-.08.12-.1a.63.63,0,0,1,.12-.1l.12-.12.12-.12V97a.05.05,0,0,1,0,0h0a1.92,1.92,0,0,1-.31.18l-.34.14a2.24,2.24,0,0,1-.42.08,4.8,4.8,0,0,1-.58,0h-.16a2.64,2.64,0,0,1-1.06-.21,2.87,2.87,0,0,1-.91-.63,2.78,2.78,0,0,1-.61-1,3.7,3.7,0,0,1-.21-1.28,3.36,3.36,0,0,1,.2-1.16,3,3,0,0,1,.6-1,2.44,2.44,0,0,1,1-.68,3.8,3.8,0,0,1,1.36-.22,4.05,4.05,0,0,1,1.31.2,2.38,2.38,0,0,1,1,.6,2.58,2.58,0,0,1,.59.84,2.22,2.22,0,0,1,.19.91v3.51H32.74Z"/><path class="cls-1" d="M40.74,88.71v5.68a0,0,0,0,0,0,0v0h0v0c0,.09,0,.18,0,.28s0,.21,0,.32-.06.22-.09.35a2.48,2.48,0,0,1-.13.35,3,3,0,0,1-.38.64,3.59,3.59,0,0,1-.54.57,1.93,1.93,0,0,1-.73.4,3.22,3.22,0,0,1-1,.14H37.7a4.78,4.78,0,0,1-1.3-.24,2.24,2.24,0,0,1-.9-.59,3.18,3.18,0,0,1-.54-.81,3,3,0,0,1-.27-.88l0-.13a.49.49,0,0,1,0-.12v-.43a3.15,3.15,0,0,1,.13-1,2.29,2.29,0,0,1,.45-.81,3.2,3.2,0,0,1,.64-.59,2.63,2.63,0,0,1,.68-.36l.21-.07a.78.78,0,0,1,.22,0l.2,0h.21q.39,0,.69,0a2.29,2.29,0,0,1,.48.09l.34.12.26.15v1.15h-.06l-.07,0,0,0,0,0h0l0,0-.29-.12-.34-.11a1.72,1.72,0,0,0-.38-.08,2.31,2.31,0,0,0-.37,0h-.2a1.67,1.67,0,0,0-.57.19,2.34,2.34,0,0,0-.52.4,1.77,1.77,0,0,0-.36.59,2.13,2.13,0,0,0-.13.78v.07a0,0,0,0,0,0,0v.1a2.9,2.9,0,0,0,.17.73,1.62,1.62,0,0,0,.3.5,2.28,2.28,0,0,0,.39.33,1.57,1.57,0,0,0,.42.18l.21.07.2,0,.2,0h.18a1.7,1.7,0,0,0,.81-.19,1.44,1.44,0,0,0,.55-.57,3.13,3.13,0,0,0,.29-.83,4.25,4.25,0,0,0,.1-1V88.71Z"/><path class="cls-1" d="M41.82,93a2.83,2.83,0,0,1,.7-1,3.53,3.53,0,0,1,1-.62,3.22,3.22,0,0,1,1.12-.2h.47a3.19,3.19,0,0,1,1,.3,3.72,3.72,0,0,1,.88.58,2.31,2.31,0,0,1,.62.93,3.53,3.53,0,0,1,.22,1.31v.1a.29.29,0,0,1,0,.09v.1a.31.31,0,0,0,0,.1l0,.2c0,.06,0,.13,0,.19a3.38,3.38,0,0,1-.35.86,3.76,3.76,0,0,1-.59.77,2.19,2.19,0,0,1-.83.53,3.16,3.16,0,0,1-1.09.18,4,4,0,0,1-1.46-.24,2.19,2.19,0,0,1-1-.7,3.28,3.28,0,0,1-.58-1.05,3.78,3.78,0,0,1-.2-1.23v0A3.08,3.08,0,0,1,41.82,93Zm1,1.42a.86.86,0,0,0,0,.16l0,.17,0,.17a2.37,2.37,0,0,0,.2.54,2.6,2.6,0,0,0,.34.5,1.24,1.24,0,0,0,.52.34,2,2,0,0,0,.74.12,2.25,2.25,0,0,0,.74-.12,1.86,1.86,0,0,0,.64-.33,1.39,1.39,0,0,0,.43-.66,3.46,3.46,0,0,0,.14-1,2.47,2.47,0,0,0-.12-.79,1.69,1.69,0,0,0-.38-.63,1.62,1.62,0,0,0-.61-.4,2.47,2.47,0,0,0-.84-.14,2.28,2.28,0,0,0-.78.12,1.24,1.24,0,0,0-.53.37,2.06,2.06,0,0,0-.34.51,2.31,2.31,0,0,0-.19.56l0,.1a.34.34,0,0,0,0,.1v.36Z"/><path class="cls-1" d="M50.89,96.26l0,0h.35l.28,0a1.25,1.25,0,0,0,.26-.07.28.28,0,0,0,.18-.14.45.45,0,0,0,.07-.27.48.48,0,0,0-.1-.31.75.75,0,0,0-.28-.24,2.53,2.53,0,0,0-.43-.18l-.53-.18-.07,0-.08,0-.08,0h-.08l-.17,0-.15,0a3.37,3.37,0,0,1-.72-.27,2.76,2.76,0,0,1-.57-.36,1.42,1.42,0,0,1-.35-.49,1.62,1.62,0,0,1-.12-.64,1.74,1.74,0,0,1,.18-.84.94.94,0,0,1,.52-.46,3.38,3.38,0,0,1,.76-.2,5,5,0,0,1,.9-.07l2.25,0v1H50.61l-.42,0a1.91,1.91,0,0,0-.36.07.42.42,0,0,0-.23.15.41.41,0,0,0-.08.25.55.55,0,0,0,.08.29.67.67,0,0,0,.25.22,2.68,2.68,0,0,0,.34.16l.38.13.12,0,.1,0,.05,0h.07l.05,0h0l.07,0,.07,0h.08l0,0h0a8.15,8.15,0,0,1,.94.39,2.42,2.42,0,0,1,.59.41,1.23,1.23,0,0,1,.32.51,1.88,1.88,0,0,1,.11.65,1.93,1.93,0,0,1-.13.69,1,1,0,0,1-.33.44,2.2,2.2,0,0,1-.43.27,2.14,2.14,0,0,1-.48.13l-.17,0H48.35V96.26Z"/><path class="cls-1" d="M61.7,92.93a.05.05,0,0,1-.05,0,.12.12,0,0,1,0-.05l-.06-.07-.07-.07-.08-.06-.08-.06-.1-.06-.11-.06a.82.82,0,0,0-.29-.08,2.25,2.25,0,0,0-.38,0,1.94,1.94,0,0,0-.86.18,1.5,1.5,0,0,0-.61.51,2.33,2.33,0,0,0-.38.71,2.48,2.48,0,0,0-.12.77v0a1.8,1.8,0,0,0,.13.69,2.3,2.3,0,0,0,.38.63,1.49,1.49,0,0,0,.62.45,2.17,2.17,0,0,0,.84.15,2.6,2.6,0,0,0,.85-.12A1.06,1.06,0,0,0,61.8,96a3.14,3.14,0,0,0,.31-.58,4.83,4.83,0,0,0,.26-.76v0h0l1.09.06v0s0,0,0,0v.1a0,0,0,0,0,0,0V95a1.41,1.41,0,0,1,0,.2,2.07,2.07,0,0,1,0,.22l0,.11,0,.11a.84.84,0,0,0,0,.12l-.05.12a2.78,2.78,0,0,1-.4.61,3,3,0,0,1-.61.56,2.18,2.18,0,0,1-.81.39,3.74,3.74,0,0,1-1,.14,3.43,3.43,0,0,1-1.22-.21,2.87,2.87,0,0,1-1-.63,2.83,2.83,0,0,1-.69-1,3.09,3.09,0,0,1-.22-1.2,3.8,3.8,0,0,1,.18-1.23,2.57,2.57,0,0,1,.56-.93,3.84,3.84,0,0,1,.79-.63,2.81,2.81,0,0,1,.86-.36l.09,0,.1,0H60l.09,0h.38a3.26,3.26,0,0,1,1,.14,2.93,2.93,0,0,1,.82.43,4.91,4.91,0,0,1,.65.64,4.36,4.36,0,0,1,.52.75l-4.13,2.23-.48-.88Z"/><path class="cls-1" d="M64.39,93.72a2.45,2.45,0,0,1,.17-.94,2.81,2.81,0,0,1,.52-.83,2.54,2.54,0,0,1,.85-.57A3,3,0,0,1,67,91.19h.22l.25,0,.28.06.3.1a2.82,2.82,0,0,1,.5.29,3.5,3.5,0,0,1,.46.42,1.42,1.42,0,0,1,.33.59,2.43,2.43,0,0,1,.12.79v3.86H68.31V93.82a1.9,1.9,0,0,0-.32-1,1,1,0,0,0-.43-.37,1.46,1.46,0,0,0-.62-.13,1.38,1.38,0,0,0-.59.12,1.09,1.09,0,0,0-.44.33,1.75,1.75,0,0,0-.3.48,2.38,2.38,0,0,0-.14.54v3.61H64.39Z"/><path class="cls-1" d="M76.76,96.26a1.46,1.46,0,0,0,.52,0,1.32,1.32,0,0,0,.42-.17.81.81,0,0,0,.28-.3,1,1,0,0,0,.15-.45,1.16,1.16,0,0,0-.07-.42,1.59,1.59,0,0,0-.23-.39,1.74,1.74,0,0,0-.37-.34,4.06,4.06,0,0,0-.51-.32l-.1,0-.1-.05-.1,0-.1,0h0v0c-.35-.17-.68-.34-1-.52s-.63-.38-.92-.58a2,2,0,0,1-.64-.7,1.75,1.75,0,0,1-.22-.89v-.14a2.33,2.33,0,0,1,.13-.83,1.34,1.34,0,0,1,.41-.6,2.66,2.66,0,0,1,1.2-.65l.1,0,.1,0h0l.07,0h.1l3,0v1.08H76.08a2,2,0,0,0-.47.1,1,1,0,0,0-.36.23,1,1,0,0,0-.22.31,1.33,1.33,0,0,0-.1.34v.12a.68.68,0,0,0,0,.21.66.66,0,0,0,.06.2,1,1,0,0,0,.13.16.65.65,0,0,0,.16.13l.56.36c.17.11.34.2.5.29l.47.24.45.23.12.07.11,0,0,0,.07,0s0,0,.06,0l0,0,.08.06.1,0L78,93l.1,0a2.86,2.86,0,0,1,.43.35,5.82,5.82,0,0,1,.4.45,1.84,1.84,0,0,1,.28.56,2.09,2.09,0,0,1,.1.67v.19c0,.07,0,.13,0,.2l0,.21,0,.2a2.08,2.08,0,0,1-.23.53,2.7,2.7,0,0,1-.38.47,1.47,1.47,0,0,1-.62.33,3.46,3.46,0,0,1-.92.11H73.62V96.26Z"/><path class="cls-1" d="M84.32,92.93l0,0,0-.05,0-.07-.07-.07L84,92.65l-.08-.06-.1-.06-.11-.06a.88.88,0,0,0-.3-.08,2.17,2.17,0,0,0-.38,0,1.9,1.9,0,0,0-.85.18,1.52,1.52,0,0,0-.62.51,2.54,2.54,0,0,0-.37.71,2.49,2.49,0,0,0-.13.77v0a2,2,0,0,0,.13.69,2.58,2.58,0,0,0,.38.63,1.63,1.63,0,0,0,.62.45,2.24,2.24,0,0,0,.84.15,2.66,2.66,0,0,0,.86-.12,1,1,0,0,0,.51-.36,2.65,2.65,0,0,0,.32-.58,6.12,6.12,0,0,0,.26-.76v0h0l1.08.06v0a.05.05,0,0,0,0,0v.1a0,0,0,0,0,0,0V95c0,.06,0,.13,0,.2a2.07,2.07,0,0,1,0,.22l0,.11a.61.61,0,0,0,0,.11l-.05.12a.56.56,0,0,1,0,.12,2.78,2.78,0,0,1-.4.61,3.3,3.3,0,0,1-.61.56,2.15,2.15,0,0,1-.82.39,3.69,3.69,0,0,1-1,.14,3.47,3.47,0,0,1-1.22-.21,3.06,3.06,0,0,1-1-.63,2.8,2.8,0,0,1-.68-1,3.09,3.09,0,0,1-.23-1.2,3.53,3.53,0,0,1,.19-1.23,2.44,2.44,0,0,1,.56-.93,3.84,3.84,0,0,1,.79-.63,2.81,2.81,0,0,1,.86-.36l.09,0,.09,0h.1l.09,0h.37a3.32,3.32,0,0,1,1,.14,2.87,2.87,0,0,1,.81.43A4.49,4.49,0,0,1,86,93.25l-4.12,2.23-.49-.88Z"/><path class="cls-1" d="M88.05,91.36V92l0,0,.05-.06.06-.07.08-.08.22-.19a2.32,2.32,0,0,1,.28-.16,1.61,1.61,0,0,1,.33-.12,1.75,1.75,0,0,1,.4,0l.4,0v1.09h-.3a2,2,0,0,0-.6.19,1.43,1.43,0,0,0-.42.31,1.7,1.7,0,0,0-.27.39,3.69,3.69,0,0,0-.17.42c0,.11,0,.21-.07.31a1.42,1.42,0,0,0,0,.29c0,.1,0,.18,0,.26v2.93H87v-6Z"/><path class="cls-1" d="M92,91.36l1.86,4.71,1.67-4.71H96.8l-2.07,5.4a1.91,1.91,0,0,1-.17.32,1.42,1.42,0,0,1-.2.22,1.27,1.27,0,0,1-.23.12,1.1,1.1,0,0,1-.26.06h-.06a1.24,1.24,0,0,1-.27,0,1.59,1.59,0,0,1-.27-.12,1,1,0,0,1-.22-.23,1.07,1.07,0,0,1-.18-.32l-2.16-5.42Z"/><path class="cls-1" d="M97.79,89.73a.54.54,0,0,1,.16-.21.94.94,0,0,1,.22-.12.67.67,0,0,1,.24,0,1,1,0,0,1,.25,0,.89.89,0,0,1,.23.13.54.54,0,0,1,.16.21.58.58,0,0,1,.06.28.64.64,0,0,1-.06.28.47.47,0,0,1-.15.21.89.89,0,0,1-.23.13.85.85,0,0,1-.23,0,.69.69,0,0,1-.25,0,.77.77,0,0,1-.24-.12.5.5,0,0,1-.16-.22.93.93,0,0,1-.05-.29v0A.66.66,0,0,1,97.79,89.73Zm0,1.63h1.08v6H97.83Z"/><path class="cls-1" d="M101.42,91.36V92s0,0,0,0l.06-.06a.13.13,0,0,1,.06-.07l.07-.08.22-.19a2.32,2.32,0,0,1,.28-.16,1.5,1.5,0,0,1,.34-.12,1.7,1.7,0,0,1,.4,0l.4,0v1.09H103a1.84,1.84,0,0,0-.6.19,1.35,1.35,0,0,0-.43.31,2,2,0,0,0-.26.39,2.47,2.47,0,0,0-.17.42c0,.11-.06.21-.08.31a2.83,2.83,0,0,0,0,.29,2.44,2.44,0,0,0,0,.26v2.93h-1.09v-6Z"/></g></g></svg>