<svg xmlns="http://www.w3.org/2000/svg" viewBox="0 0 77.26 59.95"><defs><style>.cls-1{fill:#ff5f00;}.cls-2{fill:#eb001b;}.cls-3{fill:#f79e1b;}</style></defs><title>master-bio-mercados</title><g id="Capa_2" data-name="Capa 2"><g id="Carrito_de_Compras" data-name="Carrito de Compras"><path d="M14.06,59.82v-4a2.33,2.33,0,0,0-2.52-2.52,2.61,2.61,0,0,0-2.26,1.13,2.31,2.31,0,0,0-2.12-1.13,2.13,2.13,0,0,0-1.85.93v-.8H3.91v6.37h1.4V56.3c0-1.12.59-1.66,1.52-1.66s1.39.6,1.39,1.66v3.52h1.4V56.3a1.47,1.47,0,0,1,1.52-1.66c.93,0,1.39.6,1.39,1.66v3.52Zm20.62-6.37H32.43V51.53H31v1.92H29.78v1.26H31v2.92c0,1.46.59,2.32,2.18,2.32A3.8,3.8,0,0,0,35,59.49l-.4-1.2a2.14,2.14,0,0,1-1.19.33c-.67,0-.93-.39-.93-1.06V54.71h2.25Zm11.81-.13a1.87,1.87,0,0,0-1.66.93v-.8H43.44v6.37h1.39V56.24c0-1.06.46-1.66,1.33-1.66a3.74,3.74,0,0,1,.86.13l.4-1.33A4.9,4.9,0,0,0,46.49,53.32ZM28.65,54a4.58,4.58,0,0,0-2.59-.66c-1.59,0-2.65.79-2.65,2,0,1.07.8,1.66,2.19,1.86l.66.07c.73.13,1.13.33,1.13.66s-.53.8-1.46.8a3.65,3.65,0,0,1-2.12-.67l-.67,1.06a4.71,4.71,0,0,0,2.72.8c1.86,0,2.92-.86,2.92-2.06s-.86-1.72-2.19-1.92l-.66-.07c-.6-.06-1.06-.19-1.06-.59s.46-.73,1.19-.73a4.76,4.76,0,0,1,2,.53l.6-1.13Zm37-.66a1.86,1.86,0,0,0-1.65.93v-.8H62.6v6.37H64V56.24c0-1.06.46-1.66,1.32-1.66a3.58,3.58,0,0,1,.86.13l.4-1.33A4.79,4.79,0,0,0,65.65,53.32ZM47.88,56.63A3.19,3.19,0,0,0,51.26,60a3.33,3.33,0,0,0,2.26-.73l-.67-1.13a2.66,2.66,0,0,1-1.65.6,1.89,1.89,0,0,1-1.93-2.06,2,2,0,0,1,1.93-2.05,2.66,2.66,0,0,1,1.65.6l.67-1.13a3.33,3.33,0,0,0-2.26-.73,3.18,3.18,0,0,0-3.38,3.31Zm12.87,0V53.45h-1.4v.8a2.37,2.37,0,0,0-2-.93,3.32,3.32,0,0,0,0,6.63,2.22,2.22,0,0,0,2-.93v.8h1.4V56.63Zm-5.11,0a1.93,1.93,0,1,1,3.85,0,1.93,1.93,0,1,1-3.85,0ZM39,53.32A3.32,3.32,0,0,0,39.06,60a4.1,4.1,0,0,0,2.59-.86l-.67-1a3.15,3.15,0,0,1-1.85.67,1.79,1.79,0,0,1-1.93-1.53h4.71V56.7c.07-2.06-1.13-3.38-2.92-3.38Zm0,1.19A1.56,1.56,0,0,1,40.59,56H37.27A1.68,1.68,0,0,1,39,54.51Zm34.56,2.12v-5.7h-1.4v3.32a2.37,2.37,0,0,0-2-.93,3.32,3.32,0,0,0,0,6.63,2.23,2.23,0,0,0,2-.93v.8h1.4V56.63Zm-5.11,0a1.93,1.93,0,1,1,3.85,0,1.93,1.93,0,1,1-3.85,0Zm-46.56,0V53.45H20.49v.8a2.39,2.39,0,0,0-2-.93,3.32,3.32,0,0,0,0,6.63,2.23,2.23,0,0,0,2-.93v.8h1.39V56.63Zm-5.17,0a1.93,1.93,0,1,1,3.85,0,1.93,1.93,0,1,1-3.85,0Z"/><rect class="cls-1" x="28.18" y="5.11" width="20.89" height="37.54"/><path class="cls-2" d="M29.51,23.87A23.91,23.91,0,0,1,38.6,5.11,23.87,23.87,0,1,0,23.87,47.75,23.78,23.78,0,0,0,38.6,42.64,23.82,23.82,0,0,1,29.51,23.87Z"/><path class="cls-3" d="M77.26,23.87a23.85,23.85,0,0,1-38.6,18.77,23.91,23.91,0,0,0,0-37.53,23.85,23.85,0,0,1,38.6,18.76Z"/></g></g></svg>