<svg xmlns="http://www.w3.org/2000/svg" viewBox="0 0 19.16 19.2"><title>mis-direcciones-bio-mercados</title><g id="Capa_2" data-name="Capa 2"><g id="Perfil_de_Usuario" data-name="Perfil de Usuario"><path d="M7.59,12.07a4.48,4.48,0,1,1,4.48-4.48.38.38,0,1,1-.76,0,3.72,3.72,0,1,0-3.72,3.72.38.38,0,0,1,0,.76Z"/><path d="M7.36,19.16A.36.36,0,0,1,7,19a28.25,28.25,0,0,0-3-3.71,23,23,0,0,1-2.78-3.44A7.92,7.92,0,0,1,0,7.58,7.6,7.6,0,0,1,7.59,0a7.58,7.58,0,0,1,7.59,7.58.35.35,0,0,1-.11.27.36.36,0,0,1-.26.11.4.4,0,0,1-.39-.38,6.83,6.83,0,0,0-13.66,0c0,3,1.78,4.93,3.84,7.18a27.35,27.35,0,0,1,3.08,3.82.38.38,0,0,1-.12.52A.36.36,0,0,1,7.36,19.16Z"/><path d="M11.58,19.2a1.8,1.8,0,0,1-1.79-1.8V14l-.67.61a.46.46,0,0,1-.32.16.37.37,0,0,1-.28-.13.38.38,0,0,1-.1-.27.42.42,0,0,1,.12-.26l4-3.68a1.8,1.8,0,0,1,1.22-.48,1.79,1.79,0,0,1,1.22.48l4,3.68a.37.37,0,0,1,.12.26.34.34,0,0,1-.1.27.37.37,0,0,1-.28.13.44.44,0,0,1-.26-.1l-.76-.7V17.4A1.81,1.81,0,0,1,16,19.2Zm2.21-8.54a1.06,1.06,0,0,0-.71.28l-2.53,2.32V17.4a1,1,0,0,0,1,1H16a1,1,0,0,0,1-1V13.22l-2.5-2.28A1,1,0,0,0,13.79,10.66Z"/></g></g></svg>