<svg xmlns="http://www.w3.org/2000/svg" viewBox="0 0 49.91 59.63"><defs><style>.cls-1{fill:#263b80;}.cls-2{fill:#139ad6;}.cls-3{fill:#232c65;}</style></defs><title>paypal-bio-mercados</title><g id="Capa_2" data-name="Capa 2"><g id="Carrito_de_Compras" data-name="Carrito de Compras"><path class="cls-1" d="M42.86,4.47C40.25,1.49,35.4,0,28.7,0H10.06A3.21,3.21,0,0,0,7.45,2.24L0,51.06a1.71,1.71,0,0,0,1.49,1.86H13l3-18.26v.74a3.22,3.22,0,0,1,2.61-2.23h5.59c10.81,0,19-4.47,21.62-16.77V15.28h0c.37-4.85-.37-7.83-3-10.81"/><path class="cls-2" d="M45.47,15.28h0V16.4C42.86,29.07,34.66,33.17,23.85,33.17H18.26a3.2,3.2,0,0,0-2.61,2.23L11.93,58.14a1.37,1.37,0,0,0,1.49,1.49h9.69a2.09,2.09,0,0,0,2.23-1.87v-.37L27.2,45.84v-.75a2.09,2.09,0,0,1,2.24-1.86h1.49c9.32,0,16.77-3.73,18.64-14.91.74-4.47.37-8.57-1.87-11.18a3.82,3.82,0,0,0-2.23-1.86"/><path class="cls-3" d="M42.86,14.16c-.38,0-.75-.37-1.12-.37a1.38,1.38,0,0,1-1.12-.37A19.29,19.29,0,0,0,35.78,13H21.24a1.37,1.37,0,0,0-1.12.38A2,2,0,0,0,19,15.28L16,34.66v.74a3.22,3.22,0,0,1,2.61-2.23h5.59c10.81,0,19-4.47,21.62-16.77a1.37,1.37,0,0,1,.37-1.12c-.74-.37-1.12-.75-1.86-.75-1.12-.37-1.12-.37-1.49-.37"/></g></g></svg>