<svg xmlns="http://www.w3.org/2000/svg" viewBox="0 0 45.99 60"><defs><style>.cls-1{fill:#333133;}.cls-2{fill:#d2be5d;}</style></defs><title>petro-bio-mercados</title><g id="Capa_2" data-name="Capa 2"><g id="Carrito_de_Compras" data-name="Carrito de Compras"><path class="cls-1" d="M7,45.38a3.8,3.8,0,0,0-3.76,2c-.56,1.07-.78,2.2-.92,4.73,0,.54-.08.85-.13.85a11.07,11.07,0,0,0-1.64.25,1.57,1.57,0,0,0-.11.56c-.07.71-.06.72,1,.72s1,0,1,.73v.48l-.86.08a2.47,2.47,0,0,0-1,.19.92.92,0,0,0,0,.81,5.22,5.22,0,0,0,1,.09,3.76,3.76,0,0,1,1,.11,7.25,7.25,0,0,1,.13,1.34,8.66,8.66,0,0,0,.15,1.45A.38.38,0,0,0,3,60a2.78,2.78,0,0,0,1.13-.09,4.58,4.58,0,0,0,.09-1.48A6.4,6.4,0,0,1,4.3,57s.87-.06,1.85-.08A13.31,13.31,0,0,0,8,56.76a1.5,1.5,0,0,0,0-.94c0-.08-.43-.11-1.82-.13a18.14,18.14,0,0,1-1.89-.1c-.1-.06-.12-.15-.1-.57l0-.5,1.74,0a21.2,21.2,0,0,0,2.19-.13,4.38,4.38,0,0,0,3.27-3.24,4.76,4.76,0,0,0-1.73-5A4.25,4.25,0,0,0,7,45.38Zm0,1.78a1.93,1.93,0,0,1,1.2.23,2.9,2.9,0,0,1,.78,4.51,3.19,3.19,0,0,1-1.53.84h0c-.19,0-1,.09-1.72.12l-1.38,0V52c0-2.15.29-3.49.88-4.15a3,3,0,0,1,.68-.54,1.93,1.93,0,0,1,1.09-.19Zm17.43.17a2,2,0,0,0-.7.08c-.09.07-.15.31-.23.82a3.68,3.68,0,0,1-.18.81,1.45,1.45,0,0,1-.57.16c-1,.16-1,.17-1,.86a2,2,0,0,0,.06.59c0,.07.31.12.78.16l.74.06s0,1.44,0,3.2c0,3.45,0,3.82.38,4.41a2.53,2.53,0,0,0,1.52,1.15h0a12.65,12.65,0,0,0,1.48.06c1.09,0,1.27,0,1.3-.1a2.72,2.72,0,0,0,.05-.65c0-.7,0-.73-1-.84s-1.41-.3-1.66-.83c-.1-.21-.12-.65-.14-3.26a27.92,27.92,0,0,1,.05-3.09,9,9,0,0,1,1.36-.12A5,5,0,0,0,28,50.66a2.82,2.82,0,0,0,0-1.39c-.05-.08-.35-.11-1.44-.17L25.25,49l0-.78c0-.6-.06-.8-.14-.85a2.23,2.23,0,0,0-.71-.07ZM35,49a3.51,3.51,0,0,0-.55.05,4.42,4.42,0,0,0-2.33,1.08,2,2,0,0,1-.46.33,3.27,3.27,0,0,1-.14-.57,2.65,2.65,0,0,0-.18-.64,3,3,0,0,0-1.5-.08c-.11.08-.11.54-.07,5.27s.06,5.18.16,5.26a3.57,3.57,0,0,0,1.72,0c.1-.1.11-.53.11-3.68V52.42l.26-.24a5.49,5.49,0,0,1,1.58-1A4.07,4.07,0,0,1,35,51.08,4.64,4.64,0,0,0,36.09,51a7.44,7.44,0,0,0,.08-.85c0-.71,0-.81-.08-1A1.58,1.58,0,0,0,35,49ZM17,49c-.27,0-.55,0-.83,0a3.54,3.54,0,0,0-2.65.85,3.13,3.13,0,0,0-.88,1.41,9.08,9.08,0,0,0-.32,3.23A10.12,10.12,0,0,0,12.48,57a3.31,3.31,0,0,0,2.41,2.73,9,9,0,0,0,2.51.09c2.31,0,3-.09,3.14-.28a1.84,1.84,0,0,0,0-1.16,18.46,18.46,0,0,0-3.48-.19c-1.28,0-2-.23-2.35-.82a4.22,4.22,0,0,1-.4-1.71v-.3l2.18,0a9.24,9.24,0,0,0,2.65-.19,2.25,2.25,0,0,0,1.59-1.41,5.24,5.24,0,0,0,0-2.58,2.73,2.73,0,0,0-1.6-1.85A7.33,7.33,0,0,0,17,49Zm24.3,0a10.43,10.43,0,0,0-2,.13,2.9,2.9,0,0,0-1.91,1.39,6.55,6.55,0,0,0-.73,3,8.64,8.64,0,0,0,0,2.09A4.66,4.66,0,0,0,38,59a3.73,3.73,0,0,0,2.39.86c2.55.22,4.22-.39,4.93-1.78A9,9,0,0,0,46,54.24c0-3-.82-4.51-2.71-5.08A9.75,9.75,0,0,0,41.31,49Zm-24.56,1.6a4.08,4.08,0,0,1,1.53.25A1.71,1.71,0,0,1,19,52.54a1.11,1.11,0,0,1-.49,1.08c-.22.13-.38.14-2.23.16a10,10,0,0,1-2-.05,3.3,3.3,0,0,1,0-.72c.22-1.79.53-2.18,1.9-2.35a5.07,5.07,0,0,1,.55,0Zm24.56.14c1.11,0,1.12,0,1.52.21a1.16,1.16,0,0,1,.61.56,5.73,5.73,0,0,1,.47,2.84c0,2.56-.46,3.56-1.73,3.69h0a6.51,6.51,0,0,1-1.51,0C39.4,58,39,57.51,38.73,55.79a9.33,9.33,0,0,1,0-2.69c.21-1.35.48-1.89,1.1-2.16.34-.16.45-.17,1.48-.17Z"/><path class="cls-2" d="M23.25,0a35.09,35.09,0,0,0-3.52.16,23.81,23.81,0,0,0-9.93,4,25.65,25.65,0,0,0-4.7,4.4A22.8,22.8,0,0,0,0,23.69a21.09,21.09,0,0,0,.84,5.47,23.1,23.1,0,0,0,20,16.71,35.45,35.45,0,0,0,5.35-.13,22.11,22.11,0,0,0,7.3-2.34A22.93,22.93,0,0,0,44.25,31.7a23.89,23.89,0,0,0,1.55-5.59,26.92,26.92,0,0,0,.1-5.47A23,23,0,0,0,39.23,6.7a21.92,21.92,0,0,0-7.34-4.95A22.74,22.74,0,0,0,25.24.06c-.42,0-1.17-.06-2-.06ZM25.3,8a9.22,9.22,0,0,1,5.45,1.5,9.14,9.14,0,0,1,3.56,5,10.54,10.54,0,0,1,0,5.6A11.7,11.7,0,0,1,33,22.84a9.32,9.32,0,0,1-3.26,2.82,13.53,13.53,0,0,1-2.15.69,24.13,24.13,0,0,1-4.43.17l-3.77,0v2.77h3.9c2.55,0,3.94,0,4,.07s.13.15.13,1.07c0,.56,0,1,0,1l-4,.05-4,0,0,3.13a26.46,26.46,0,0,1-.09,3.21c-.06.07-.37.09-1.32.09-1.15,0-1.25,0-1.38-.14a.53.53,0,0,1-.14-.39c0-.58-.35-5.8-.39-5.86a13.45,13.45,0,0,0-2-.07c-1.08,0-2,0-2.08,0a2.82,2.82,0,0,1,0-1.63,12,12,0,0,1,2-.25l2-.16s-.05-1.88-.1-2.49l0-.44h-1.9c-1.63,0-1.92,0-2-.1s-.11-.29-.11-1.05c0-.94,0-1.16.25-1.23.06,0,.89-.13,1.85-.22a13.4,13.4,0,0,0,1.8-.25s.06-.91.09-1.93a26.22,26.22,0,0,1,1.27-8.4c1.28-3.45,3.46-5,7.29-5.31.32,0,.63,0,.95,0Zm.07,3.26h-.43a5.06,5.06,0,0,0-2.26.53c-1.75.84-2.74,2.89-3.09,6.38-.1,1-.24,5-.18,5.28l.05.18,2.65,0c1.46,0,2.94-.08,3.28-.12a6.21,6.21,0,0,0,5.42-4.22,6.55,6.55,0,0,0-.06-4.06,5.49,5.49,0,0,0-1.1-1.93,5.85,5.85,0,0,0-3.22-1.89,4.53,4.53,0,0,0-1.06-.12Z"/></g></g></svg>