<svg xmlns="http://www.w3.org/2000/svg" viewBox="0 0 20 20"><defs><style>.cls-1{fill:#fff;}.cls-2{fill:#80bc00;}</style></defs><title>Subir-archivo-bio-mercados</title><g id="Capa_2" data-name="Capa 2"><g id="Perfil_de_Usuario" data-name="Perfil de Usuario"><circle class="cls-1" cx="10" cy="10" r="10"/><path class="cls-2" d="M7.08,6.59H8.75V12a.42.42,0,0,0,.42.42h1.66a.42.42,0,0,0,.42-.42V6.59h1.67a.42.42,0,0,0,.38-.24.44.44,0,0,0-.07-.45L10.31,2.57a.41.41,0,0,0-.62,0L6.77,5.9a.44.44,0,0,0-.07.45A.42.42,0,0,0,7.08,6.59Z"/><path class="cls-2" d="M14.58,11.59v2.5H5.42v-2.5H3.75v3.34a.83.83,0,0,0,.83.83H15.42a.83.83,0,0,0,.83-.83V11.59Z"/></g></g></svg>