<svg xmlns="http://www.w3.org/2000/svg" viewBox="0 0 95.46 59.95"><defs><style>.cls-1{fill:#0e4595;}.cls-2{fill:#fff;}.cls-3{fill:#f2ae14;}</style></defs><title>visa-bio-mercados</title><g id="Capa_2" data-name="Capa 2"><g id="Carrito_de_Compras" data-name="Carrito de Compras"><rect class="cls-1" width="95.46" height="59.95" rx="5.09"/><path class="cls-2" d="M35.41,42.54l4.25-24.92h6.79L42.2,42.54ZM66.74,18.16a17.73,17.73,0,0,0-6.09-1c-6.71,0-11.44,3.37-11.48,8.22,0,3.58,3.37,5.58,5.95,6.77s3.53,2,3.52,3.09c0,1.67-2.11,2.43-4.06,2.43a14.27,14.27,0,0,1-6.4-1.31l-.87-.39-1,5.58a21.59,21.59,0,0,0,7.56,1.32c7.14,0,11.78-3.34,11.83-8.51,0-2.83-1.79-5-5.7-6.77-2.38-1.15-3.83-1.92-3.82-3.09s1.23-2.14,3.89-2.14a12.76,12.76,0,0,1,5.09.95l.6.29.93-5.4m17.47-.54H79a3.38,3.38,0,0,0-3.55,2.07L65.32,42.53h7.13l1.43-3.75h8.7c.2.87.83,3.74.83,3.74h6.3l-5.5-24.91ZM75.89,33.71c.56-1.43,2.7-7,2.7-7s.56-1.44.9-2.38L80,26.52l1.57,7.19ZM29.64,17.62,23,34.62l-.71-3.46c-1.24-4-5.1-8.29-9.41-10.45L19,42.5h7.19L36.84,17.62h-7.2"/><path class="cls-3" d="M16.79,17.62H5.84l-.09.52c8.52,2.07,14.16,7.05,16.5,13L19.87,19.73c-.41-1.58-1.6-2.05-3.08-2.11"/></g></g></svg>