<svg xmlns="http://www.w3.org/2000/svg" viewBox="0 0 15.03 15"><defs><style>.cls-1{fill:#ccc;}</style></defs><title>visualizar-producto-bio</title><g id="Capa_2" data-name="Capa 2"><g id="Guias_y_recursos" data-name="Guias y recursos"><path class="cls-1" d="M5.77,11.54A5.77,5.77,0,0,1,1.69,1.69,5.77,5.77,0,0,1,9.85,9.85,5.74,5.74,0,0,1,5.77,11.54ZM5.77.77A5,5,0,1,0,9.3,2.23,5,5,0,0,0,5.77.77Z"/><path class="cls-1" d="M14.64,15a.4.4,0,0,1-.27-.11l-5.06-5a.37.37,0,0,1,0-.54.39.39,0,0,1,.55,0l5.06,5a.39.39,0,0,1,0,.55A.39.39,0,0,1,14.64,15Z"/></g></g></svg>